<?xml version="1.0" standalone="no"?>
<!DOCTYPE svg PUBLIC "-//W3C//DTD SVG 1.1//EN" "http://www.w3.org/Graphics/SVG/1.1/DTD/svg11.dtd" >
<svg xmlns="http://www.w3.org/2000/svg" xmlns:xlink="http://www.w3.org/1999/xlink" version="1.1">
<metadata>
Created by FontForge 20200427 at Sun Jun 23 23:42:11 2019
 By www
Copyright (c) 2019 by Nikolas Wrobel, B.A..
</metadata>
<defs>
<font id="GrandSlang-Roman" horiz-adv-x="0" >
  <font-face 
    font-family="GrandSlang Roman"
    font-weight="400"
    font-stretch="normal"
    units-per-em="1000"
    panose-1="0 0 5 0 0 0 0 0 0 0"
    ascent="800"
    descent="-200"
    x-height="500"
    cap-height="693"
    bbox="-643 -292 1557 898"
    underline-thickness="50"
    underline-position="-200"
    unicode-range="U+0020-2260"
  />
<missing-glyph horiz-adv-x="100" 
 />
    <glyph glyph-name="f_i" unicode="fi" horiz-adv-x="571" 
d="M83 500q0 147 142 223q97 52 205 48q73 -2 80 -30q1 -2 1 -4q0 -17 -17.5 -25.5t-50 -10t-63.5 0t-74.5 5t-65.5 3.5q-16 0 -29 -7t-21 -18.5t-13.5 -28t-8 -32t-3.5 -34t-1 -30.5t0.5 -24t0.5 -13l1 -24v1h165l-50 -59h-114v-393l7 -48h-98l7 40v401h-50zM483 60l4 -60
h-90l4 60v440h82v-440z" />
    <glyph glyph-name="f_l" unicode="fl" horiz-adv-x="568" 
d="M512 152q3 -140 60 -152q-80 0 -109.5 16t-32.5 72v102l-1 461q0 16 -7 28t-20.5 18t-28.5 10t-35.5 4.5t-35.5 0.5t-34.5 -1t-27.5 -1q-16 0 -29 -7.5t-21 -19t-13.5 -28t-8 -32t-3.5 -33.5t-1 -30t0.5 -24t0.5 -13l1 -24v1h155l-50 -59h-104v-393l7 -48h-98l7 40v401
h-50l50 59q0 143 133 217q95 53 201 47q80 -3 92 -38q2 -4 2 -9v-522q0 -6 0.5 -20.5t0.5 -22.5z" />
    <glyph glyph-name=".notdef" horiz-adv-x="100" 
 />
    <glyph glyph-name=".null" 
 />
    <glyph glyph-name="nonmarkingreturn" horiz-adv-x="333" 
 />
    <glyph glyph-name="space" unicode=" " horiz-adv-x="221" 
 />
    <glyph glyph-name="exclam" unicode="!" horiz-adv-x="202" 
d="M47 637q0 25 15.5 43.5t38.5 18.5q22 0 35.5 -18.5t13.5 -43.5q0 -32 -15.5 -181t-33.5 -262zM46 44q0 21 16.5 37.5t39.5 16.5q21 0 37.5 -16.5t16.5 -37.5q0 -23 -16.5 -39.5t-37.5 -16.5q-23 0 -39.5 16.5t-16.5 39.5z" />
    <glyph glyph-name="quotedbl" unicode="&#x22;" horiz-adv-x="373" 
d="M160 729q0 -16 -8 -28v-1q-15 -22 -27 -56.5t-17 -57.5l-4 -24q-10 85 -44 134l-3 4h1q-8 14 -8 29q0 21 16.5 37.5t39.5 16.5q21 0 37.5 -16.5t16.5 -37.5zM323 729q0 -16 -8 -28v-1q-15 -22 -27 -56.5t-16 -57.5l-5 -24q-10 85 -44 134l-3 4h1q-8 14 -8 29
q0 21 16.5 37.5t39.5 16.5q21 0 37.5 -16.5t16.5 -37.5z" />
    <glyph glyph-name="numbersign" unicode="#" horiz-adv-x="692" 
d="M457 458v-196h215v-8h-215v-228h-8v228h-202v-228h-8v228h-219v8h219v196h-219v8h219v212h8v-212h202v212h8v-212h215v-8h-215zM449 458h-202v-196h202v196z" />
    <glyph glyph-name="dollar" unicode="$" horiz-adv-x="637" 
d="M337 398q39 -13 63 -22.5t57.5 -25t54 -31t41 -37t30.5 -48t10 -58.5q1 -95 -66 -141.5t-172 -48.5h-18v-63h-10v63q-28 0 -52 1.5t-46 5t-36 5.5t-35 8t-28.5 8.5l-30 10t-27.5 9.5l-32 268h6q8 -81 34 -140t66 -92.5t84.5 -50t96.5 -18.5v288q-133 51 -179 81
q-95 60 -96 148q0 19 5 40t22 47t43.5 46.5t74 35.5t109.5 17h21v42h10v-42q54 0 112 -4.5t89 -9.5l31 -4l28 -233h-5q-6 67 -32.5 106t-76.5 71q-64 42 -146 53v-285zM103 572q1 -27 15 -50.5t31 -38.5t52.5 -32t58 -25l67.5 -24v283q-92 11 -159 -19.5t-65 -93.5zM355 0
q50 1 86.5 13.5t54.5 33t26 40t8 39.5q0 29 -14.5 52.5t-45 43t-59 32.5t-74.5 31v-285h18z" />
    <glyph glyph-name="percent" unicode="%" horiz-adv-x="691" 
d="M642 703l-585 -715l-9 7l585 716zM303 661q51 -43 54 -111.5t-44 -122.5q-47 -53 -116.5 -60t-120.5 37q-51 43 -53.5 112t44.5 122t116.5 60t119.5 -37zM268 476q48 54 58.5 101t-25.5 81q-41 29 -90 13.5t-102 -67.5q-50 -49 -59 -105t28 -88q40 -29 90.5 -10t99.5 75z
M615 294q51 -43 53.5 -112t-44.5 -122t-116.5 -60t-120.5 36q-50 44 -53 112.5t44 121.5q47 54 116.5 61t120.5 -37zM580 108q48 55 58 101.5t-25 81.5q-40 29 -90 13.5t-102 -67.5q-50 -49 -59 -105t28 -88q40 -29 90.5 -10t99.5 74z" />
    <glyph glyph-name="ampersand" unicode="&#x26;" horiz-adv-x="820" 
d="M693 0q-56 54 -117 109q-96 -128 -224 -129q-112 -1 -194.5 54.5t-82.5 143.5q0 48 16.5 83.5t47.5 56.5t58.5 32t65.5 20q-83 66 -116 104t-33 80q0 60 64 112t164 53q54 0 97 -15t68 -40t37.5 -53.5t12.5 -56.5q0 -59 -56 -102.5t-143 -64.5q221 -176 258 -207l104 128
h11l-106 -136q94 -79 195 -172h-127zM199 579q0 -42 32 -79.5t116 -103.5q58 29 93.5 77t35.5 106q0 55 -30 93.5t-104 38.5t-108.5 -39t-34.5 -93zM352 -9q58 0 116.5 35.5t98.5 91.5q-117 105 -284 235q-119 -78 -119 -175q0 -83 53 -135t135 -52z" />
    <glyph glyph-name="quotesingle" unicode="'" horiz-adv-x="210" 
d="M160 729q0 -16 -8 -28v-1q-15 -22 -27 -56.5t-17 -57.5l-4 -24q-10 85 -44 134l-3 4h1q-8 14 -8 29q0 21 16.5 37.5t39.5 16.5q21 0 37.5 -16.5t16.5 -37.5z" />
    <glyph glyph-name="parenleft" unicode="(" horiz-adv-x="243" 
d="M105 360q0 -227 108 -406h-9q-174 176 -174 406q0 234 174 408h9q-108 -178 -108 -408z" />
    <glyph glyph-name="parenright" unicode=")" horiz-adv-x="243" 
d="M138 360q0 230 -108 408h9q174 -174 174 -408q0 -230 -174 -406h-9q108 179 108 406z" />
    <glyph glyph-name="asterisk" unicode="*" horiz-adv-x="386" 
d="M125 706l69 -133l67 130l-44 -137l139 42l-130 -66l130 -68l-139 45l45 -142l-68 133l-66 -130l42 139l-137 -44l130 67l-133 69l140 -45z" />
    <glyph glyph-name="plus" unicode="+" horiz-adv-x="570" 
d="M292 564v-249h248v-18h-248v-243h-18v243h-244v18h244v249h18z" />
    <glyph glyph-name="comma" unicode="," horiz-adv-x="210" 
d="M160 53q1 -15 -1.5 -35.5t-23 -61t-59.5 -70.5h-5q4 3 10.5 8.5t19.5 21t18.5 29t-2 29.5t-32.5 26q-35 16 -35 52q0 21 16.5 37.5t39.5 16.5q21 0 37.5 -16.5t16.5 -36.5z" />
    <glyph glyph-name="hyphen" unicode="-" horiz-adv-x="451" 
d="M406 296h-361v14h361v-14z" />
    <glyph glyph-name="period" unicode="." horiz-adv-x="183" 
d="M92 -6q-21 0 -36.5 15.5t-15.5 36.5q0 20 15.5 35.5t36.5 15.5q20 0 35.5 -15.5t15.5 -35.5q0 -21 -15.5 -36.5t-35.5 -15.5z" />
    <glyph glyph-name="slash" unicode="/" horiz-adv-x="503" 
d="M447 759l16 -8l-406 -815l-17 8z" />
    <glyph glyph-name="zero" unicode="0" horiz-adv-x="712" 
d="M662 353q0 -150 -89.5 -256t-215.5 -106t-216.5 106t-90.5 256t90.5 256t216.5 106t215.5 -106t89.5 -256zM560 354q0 153 -53.5 251t-149.5 98t-149 -98t-53 -251t53.5 -250.5t149.5 -97.5t149 97.5t53 250.5z" />
    <glyph glyph-name="one" unicode="1" horiz-adv-x="367" 
d="M212 600q11 4 11 -9v-538q0 -17 -6 -53h90q-6 27 -6 53l1 648l-242 -163l3 -1z" />
    <glyph glyph-name="two" unicode="2" horiz-adv-x="598" 
d="M30 0q10 85 19 118q16 60 51 103.5t79 70t88.5 48t91 50t74.5 63.5q74 79 37 156q-29 61 -107 84q-98 28 -184 -27q-85 -54 -124 -175v159q57 50 158 62.5t196.5 -21t132.5 -104.5l6 -9t11 -25t8.5 -38.5t-5.5 -47.5t-25 -54q-27 -38 -79 -71t-109.5 -59.5t-116.5 -58.5
t-112 -85.5t-84 -123.5h254q78 0 154.5 48t106.5 124h5l-44 -187h-482z" />
    <glyph glyph-name="three" unicode="3" horiz-adv-x="568" 
d="M30 -21q38 0 87.5 11t101.5 31t99 48.5t80.5 64t46.5 77.5t-3 88q-36 75 -94.5 87.5t-157.5 -25.5l-12 6q273 63 238 245q-13 69 -89.5 94t-169 -29t-137.5 -186v159q64 50 168 65t198 -14t126 -95q28 -65 -17 -118t-125 -79q140 0 171 -77q27 -67 -40 -155
q-80 -104 -234 -161q-111 -40 -235 -43h-5v6h3z" />
    <glyph glyph-name="four" unicode="4" horiz-adv-x="677" 
d="M649 215v-17h-160l-1 -198h-85l1 198h-374l330 525h171q-178 -147 -291 -266t-179 -242h343v194l85 100v-294h160z" />
    <glyph glyph-name="five" unicode="5" horiz-adv-x="622" 
d="M56 179q26 -69 101 -129t115 -60q119 0 168.5 81t3.5 190q-91 212 -338 82l-34 -18l65 375h414l-31 -72h-383l-49 -278q78 46 159 61t146 1.5t112.5 -55t61.5 -104.5q11 -49 -4.5 -94.5t-48.5 -78t-75.5 -57t-85.5 -36.5t-78 -12q-53 0 -114 11t-94 27l-15 166h4z" />
    <glyph glyph-name="six" unicode="6" horiz-adv-x="611" 
d="M106 493q61 89 190 162.5t254 110.5l2 -8q-67 -23 -134.5 -61t-128 -87.5t-102 -112t-49.5 -125.5q118 93 246 65q98 -21 151 -99q59 -89 18 -188q-25 -57 -82 -107q-72 -53 -143.5 -63.5t-127 15t-96 78.5t-56.5 120t-2.5 147t60.5 153zM136 360q-12 -86 15 -174
t85 -140q89 -75 161.5 -24t77.5 174q3 77 -24 130.5t-74 75t-110.5 12t-130.5 -53.5z" />
    <glyph glyph-name="seven" unicode="7" horiz-adv-x="592" 
d="M572 693q-163 -213 -253 -375t-109 -318h-130q24 77 79 168.5t108.5 159t127 158.5t108.5 140l-453 -4l24 71h498z" />
    <glyph glyph-name="eight" unicode="8" horiz-adv-x="619" 
d="M47 178q0 33 20 64t53 53.5t64.5 38t63.5 25.5q-84 28 -141 79.5t-57 110.5q0 71 72.5 120t187.5 50q119 1 189 -48.5t70 -121.5q0 -100 -213 -166q127 -39 171.5 -84.5t44.5 -120.5q0 -87 -79 -142t-183 -56q-99 -1 -181 55.5t-82 142.5zM141 549q0 -58 43.5 -91.5
t155.5 -69.5q60 18 99 60.5t39 100.5q0 72 -41 116t-127 44t-127.5 -44t-41.5 -116zM143 178q0 -82 49.5 -134.5t117.5 -52.5q69 0 118 52.5t48 134.5q0 61 -48.5 103t-165.5 74q-39 -12 -64 -30t-36.5 -43t-15 -47.5t-3.5 -56.5z" />
    <glyph glyph-name="nine" unicode="9" horiz-adv-x="623" 
d="M487 179q-71 -85 -202.5 -152.5t-250.5 -91.5l-2 8q179 40 298.5 135t147.5 224q-127 -83 -253 -43q-94 29 -139 111q-51 93 -2 188q30 56 91 101q76 46 147.5 50.5t123 -26t86 -86.5t43 -124t-13 -146.5t-74.5 -147.5zM481 313q20 83 0.5 173.5t-72.5 149.5
q-38 42 -84 50.5t-84 -11.5t-64 -65.5t-26 -102.5q1 -158 93.5 -213.5t236.5 19.5z" />
    <glyph glyph-name="colon" unicode=":" horiz-adv-x="242" 
d="M122 323q-21 0 -36.5 15.5t-15.5 36.5q0 20 15.5 35.5t36.5 15.5q20 0 35.5 -15.5t15.5 -35.5q0 -21 -15.5 -36.5t-35.5 -15.5zM122 63q-21 0 -36.5 15.5t-15.5 36.5q0 20 15.5 35.5t36.5 15.5q20 0 35.5 -15.5t15.5 -35.5q0 -21 -15.5 -36.5t-35.5 -15.5z" />
    <glyph glyph-name="semicolon" unicode=";" horiz-adv-x="250" 
d="M122 323q-21 0 -36.5 15.5t-15.5 36.5q0 20 15.5 35.5t36.5 15.5q20 0 35.5 -15.5t15.5 -35.5q0 -21 -15.5 -36.5t-35.5 -15.5zM180 53q1 -15 -1.5 -35.5t-23 -61t-59.5 -70.5h-5q4 3 10.5 8.5t19.5 21t18.5 29t-2 29.5t-32.5 26q-35 16 -35 52q0 21 16.5 37.5t39.5 16.5
q21 0 37.5 -16.5t16.5 -36.5z" />
    <glyph glyph-name="less" unicode="&#x3c;" horiz-adv-x="540" 
d="M510 50l-480 256l480 244v-94l-461 -150l461 -152v-104z" />
    <glyph glyph-name="equal" unicode="=" horiz-adv-x="466" 
d="M436 367h-406v18h406v-18zM436 227h-406v18h406v-18z" />
    <glyph glyph-name="greater" unicode="&#x3e;" horiz-adv-x="540" 
d="M30 60v104l461 152l-461 150v94l480 -244z" />
    <glyph glyph-name="question" unicode="?" horiz-adv-x="554" 
d="M164 165q-4 14 -1.5 38.5t7.5 50t30.5 56t67.5 56.5q6 4 15.5 10.5t34.5 28.5t44 46t34.5 61t16.5 75q1 54 -35 77t-85 25q-107 0 -155.5 -53.5t-51.5 -161.5l-6 -1l3 215q16 2 41.5 5.5t82 8t86.5 2.5q54 -3 97 -23t67 -47t36 -54t11 -47q-1 -33 -14 -61t-38.5 -50.5
t-48 -38t-55 -35.5t-47.5 -30q-31 -20 -51.5 -36t-47 -48t-38.5 -69zM211 -6q-21 0 -36.5 15.5t-15.5 36.5q0 20 15.5 35.5t36.5 15.5q20 0 35.5 -15.5t15.5 -35.5q0 -21 -15.5 -36.5t-35.5 -15.5z" />
    <glyph glyph-name="at" unicode="@" horiz-adv-x="787" 
d="M75 241q0 138 98 235.5t235 97.5q142 0 221 -84q83 -88 83 -223q0 -41 -18 -79q-40 -84 -143 -99q-100 -9 -110 50q-68 -51 -130.5 -35.5t-84.5 72.5q-27 63 12.5 134t112.5 94q78 25 151 -36l8 28h51l-68 -206l-1 -4q-17 -50 3.5 -72.5t54.5 -18.5h1q103 16 137 95
q18 37 18 77q0 132 -81 218q-78 83 -217 83q-136 0 -232 -96t-96 -231t96 -231.5t232 -96.5q12 0 37 2.5t73.5 20.5t73.5 48l4 -4q-37 -44 -115 -63q-44 -9 -73 -9q-137 0 -235 98t-98 235zM297 303q-28 -50 -17.5 -106t51.5 -84q7 -5 14.5 -7t16 -1t15 2.5t16.5 7t15.5 8.5
t16.5 10t15 9q-5 25 6 58l54 162q-15 17 -33 26q-39 26 -89.5 -2t-80.5 -83z" />
    <glyph glyph-name="A" unicode="A" horiz-adv-x="746" 
d="M114 164q-55 -107 2 -164h-106l309 626q-12 18 -50 38t-46 29h162l359 -693h-109l-128 253h-350zM328 609l-164 -341h336z" />
    <glyph glyph-name="B" unicode="B" horiz-adv-x="695" 
d="M96 674l-58 19h340q131 0 217.5 -45t86.5 -130q0 -69 -69 -116t-160 -47h-27q78 0 147.5 -47t69.5 -129q0 -48 -21 -84.5t-55.5 -56t-72 -29t-75.5 -9.5h-323v674zM403 366q68 0 122 41.5t54 107.5q0 85 -61.5 125t-201.5 40h-125v-314h212zM419 13q132 0 132 164
q0 174 -159 174h-201v-338h228z" />
    <glyph glyph-name="C" unicode="C" horiz-adv-x="782" 
d="M132 383q0 -97 35 -182t100.5 -138t144.5 -53q103 0 179.5 38.5t172.5 134.5l-14 -27q-26 -28 -56.5 -53.5t-74 -53.5t-97.5 -44.5t-110 -16.5q-163 1 -277.5 105t-114.5 250q0 74 30 140t80.5 111t117.5 76t141.5 36t151.5 -10q32 -6 61.5 -15t59 -20t32.5 -12l4 -174
q-40 82 -99.5 134.5t-121.5 70.5t-124.5 7.5t-111 -48t-79 -104.5t-30.5 -152z" />
    <glyph glyph-name="D" unicode="D" horiz-adv-x="766" 
d="M349 693q166 0 276.5 -100.5t110.5 -245.5t-108 -246t-272 -101h-270l16 36v641l-62 16h309zM356 12q128 0 208 100.5t80 233.5q0 66 -25 124t-76.5 107.5t-141 78t-208.5 28.5v-672h163z" />
    <glyph glyph-name="E" unicode="E" horiz-adv-x="710" 
d="M70 693h433l137 -270q-13 14 -37.5 47t-44 57.5t-57 55.5t-80 50.5t-110.5 33t-151 13.5v-327h304v-15h-304v-326q70 -3 131 13.5t113 51.5t93.5 74.5t87.5 96.5l-126 -248h-389v693z" />
    <glyph glyph-name="F" unicode="F" horiz-adv-x="627" 
d="M559 459l-4 -1q-12 39 -32.5 75t-51.5 70.5t-76.5 55t-98.5 20.5h-142v-326h280v-15h-280v-338h-89v693h431z" />
    <glyph glyph-name="G" unicode="G" horiz-adv-x="768" 
d="M46 343q0 71 22.5 131t61.5 100.5t91.5 70.5t113 42.5t125.5 16.5t130 -9q31 -6 61 -15t58.5 -19.5t33.5 -12.5l5 -174q-29 83 -85.5 136.5t-122 71.5t-135 4.5t-125.5 -55t-92 -117t-36 -171.5q0 -145 69 -239t189 -98q84 1 170 91l1 236l-289 7v10l380 5v-354
q-10 46 -38.5 71t-53.5 6q-81 -88 -170 -90q-158 3 -261 105.5t-103 249.5z" />
    <glyph glyph-name="H" unicode="H" horiz-adv-x="627" 
d="M13 0q9 393 0 693h89v-338h421v338h91q-16 -340 0 -693h-91v340h-421v-340h-89z" />
    <glyph glyph-name="I" unicode="I" horiz-adv-x="194" 
d="M54 103q10 278 0 487l-5 103h96l-6 -103q-6 -247 0 -487l6 -103h-96z" />
    <glyph glyph-name="J" unicode="J" horiz-adv-x="601" 
d="M35 234q24 -43 41 -70.5t41 -61.5t44 -53t45 -33t50 -14q35 0 61.5 11t43.5 34.5t28 51.5t16 71t7 81.5t2 93.5v318l-240 24v6h338l-3 -24v-324q0 -166 -66.5 -260.5t-178.5 -94.5q-96 -3 -219 61z" />
    <glyph glyph-name="K" unicode="K" horiz-adv-x="704" 
d="M83 0q3 103 3 218.5t-1.5 256.5t-1.5 218h94v-278l474 278h34l-496 -293l443 -400h-119l-336 312v-312h-94z" />
    <glyph glyph-name="L" unicode="L" horiz-adv-x="532" 
d="M76 693h90v-681q70 -3 129.5 13.5t110.5 52t90 74t86 96.5l-126 -248h-380v693z" />
    <glyph glyph-name="M" unicode="M" horiz-adv-x="936" 
d="M7 693h129l364 -409l290 409h97v-693h-95v665l-335 -469l-350 379v-575h-16v579q0 23 -29 58.5t-55 54.5v1z" />
    <glyph glyph-name="N" unicode="N" horiz-adv-x="776" 
d="M739 -14q-37 50 -118 130.5t-108 113.5l-371 360v-590h-16v597q-8 17 -24 33t-38 34t-32 28v1h150l542 -533l5 533h19z" />
    <glyph glyph-name="O" unicode="O" horiz-adv-x="811" 
d="M779 377q16 -149 -80.5 -261.5t-247.5 -124.5q-152 -11 -269.5 85t-133.5 245q-15 148 82 261t248 125q151 11 268.5 -85.5t132.5 -244.5zM713 377q14 133 -70 223.5t-190 81.5q-117 -9 -218 -111.5t-116 -238.5q-15 -135 62 -227.5t181 -83.5q121 9 228 114.5t123 241.5
z" />
    <glyph glyph-name="P" unicode="P" horiz-adv-x="706" 
d="M377 693q124 0 209 -58.5t85 -146.5q0 -70 -43.5 -123.5t-103.5 -78t-122 -25.5h-238v-239l2 -22h-93q3 24 3 25v649l-58 19h359zM392 279q80 2 128 57t48 149q0 192 -253 192h-151v-398h228z" />
    <glyph glyph-name="Q" unicode="Q" horiz-adv-x="833" 
d="M838 -83l-180 158q-90 -75 -207 -84q-152 -11 -269.5 85t-133.5 245q-15 148 82 261t248 125q151 11 268.5 -85.5t132.5 -244.5q9 -85 -21 -161.5t-90 -131.5l178 -157zM362 21q122 9 228 114l-284 250l9 10l284 -250q100 104 114 232q14 133 -70 223.5t-190 81.5
q-117 -9 -218 -111.5t-116 -238.5q-15 -135 62 -227.5t181 -83.5z" />
    <glyph glyph-name="R" unicode="R" horiz-adv-x="765" 
d="M627 0q-14 29 -58 52t-94.5 43t-100 48t-82.5 80t-33 126v19l121 1q31 0 53.5 2.5t46.5 11.5t39.5 24.5t25 42.5t9.5 64q0 59 -26.5 97.5t-64 52.5t-84.5 14l-214 -1v-677h-91v693h327q105 0 179 -51t74 -125q0 -63 -76 -115.5t-159 -53.5h-152q0 -70 65 -109.5
t189 -64.5q156 -40 168 -174h-62z" />
    <glyph glyph-name="S" unicode="S" horiz-adv-x="637" 
d="M355 -14q-28 0 -54 1t-44.5 2t-40.5 5t-32.5 5.5t-31 8t-26.5 8t-28 9.5t-26 9l-32 268h6q7 -70 28 -123.5t50.5 -87t68.5 -55t78.5 -29.5t83.5 -7q50 1 86.5 13.5t54.5 33t26 40t8 39.5q0 37 -26 66.5t-68 50.5t-92.5 40t-101.5 40t-93.5 46t-69 63t-27.5 86q0 19 5 40
t22 47t43.5 46.5t74 35.5t109.5 17q60 2 125.5 -2.5t101.5 -9.5l36 -6l28 -233h-5q-6 67 -32.5 106t-76.5 71q-71 46 -162 56t-155.5 -21.5t-62.5 -92.5q2 -55 53 -92.5t122 -61.5t142 -50t121.5 -74t51.5 -118q1 -95 -66 -141.5t-172 -48.5z" />
    <glyph glyph-name="T" unicode="T" horiz-adv-x="710" 
d="M683 459l-4 -1q-28 86 -79.5 153.5t-119.5 67.5h-81v-679h-88v679h-79q-68 0 -119.5 -67t-79.5 -153h-4l42 234h569z" />
    <glyph glyph-name="U" unicode="U" horiz-adv-x="718" 
d="M22 693h101v-322q2 -183 57.5 -272t177.5 -89q136 0 227 105t91 256v322h19v-322q0 -151 -95 -265.5t-242 -114.5q-67 0 -125 20.5t-106.5 62t-76.5 113t-28 165.5v341z" />
    <glyph glyph-name="V" unicode="V" horiz-adv-x="741" 
d="M80 693l357 -600l318 600h17l-378 -707l-425 707h111z" />
    <glyph glyph-name="W" unicode="W" horiz-adv-x="1091" 
d="M774 -14l-218 390l-192 -390l-395 707h111l323 -586l142 288l-166 298h111l323 -588l289 588h20z" />
    <glyph glyph-name="X" unicode="X" horiz-adv-x="697" 
d="M612 0l-287 320l-314 -320h-22l326 332l-323 361h123l264 -295l290 295h22l-301 -307l345 -386h-123z" />
    <glyph glyph-name="Y" unicode="Y" horiz-adv-x="737" 
d="M334 23l-1 289l-377 381h117l350 -360l316 360h19l-326 -372v-298l3 -23h-105z" />
    <glyph glyph-name="Z" unicode="Z" horiz-adv-x="722" 
d="M70 693h582l-10 -11l-538 -669l181 -1q70 0 128 16t107.5 51t87 73t84.5 96l-106 -248h-602l545 680l-158 1q-41 1 -77.5 -5t-63.5 -14t-58 -29t-49 -34.5t-48 -46.5t-44 -49.5t-47 -57.5z" />
    <glyph glyph-name="bracketleft" unicode="[" horiz-adv-x="311" 
d="M50 773h261v-9h-171l1 -823h170v-11h-261v843z" />
    <glyph glyph-name="backslash" unicode="\" horiz-adv-x="503" 
d="M446 -64l-406 815l16 8l407 -815z" />
    <glyph glyph-name="bracketright" unicode="]" horiz-adv-x="311" 
d="M261 773v-843h-261v11h170l1 823h-171v9h261z" />
    <glyph glyph-name="underscore" unicode="_" horiz-adv-x="451" 
d="M406 0h-361v14h361v-14z" />
    <glyph glyph-name="grave" unicode="`" horiz-adv-x="319" 
d="M30 737l259 -127h-75z" />
    <glyph glyph-name="a" unicode="a" horiz-adv-x="580" 
d="M140 493q44 18 97.5 19t102.5 -14.5t90.5 -41.5t66 -64.5t24.5 -80.5q0 -87 1 -145v-14q0 -139 60 -152q-81 0 -110.5 16t-32.5 72v78l2 64l-1 -3q-66 -137 -157 -198q-55 -37 -111 -37q-89 0 -127 58q-37 55 -1 118q48 84 194 114q3 1 7.5 2l18 4t27 6.5t32 9t34 10.5
t32 11.5t27.5 12.5t18.5 13t7.5 13q2 87 -62.5 105.5t-173.5 -22.5l-148 -55zM113 117q52 -77 124 -54t137 102.5t67 144.5l1 30l-3 -2q-3 -3 -14.5 -10t-30 -15.5t-56 -19.5t-85.5 -22q-1 0 -13.5 -3l-25 -6t-30.5 -9.5t-32 -14t-27.5 -20t-19.5 -26.5t-5 -33.5t13 -41.5z
" />
    <glyph glyph-name="b" unicode="b" horiz-adv-x="620" 
d="M156 449q50 38 105 55t103.5 12.5t93 -22.5t76 -51t50 -72.5t17 -88.5t-24.5 -97q-4 -8 -12.5 -21.5t-36.5 -48t-58.5 -60.5t-76.5 -47.5t-93 -21.5q-6 0 -16.5 0.5t-37 6t-47 14.5t-37 28.5t-16.5 46.5q0 25 -37 -37l-33 -59v750l81 69v-356zM159 91q0 -46 39.5 -67.5
t100.5 -21.5q122 0 176 107q47 92 23 207q-24 111 -98 158q-103 65 -244 -41z" />
    <glyph glyph-name="c" unicode="c" horiz-adv-x="540" 
d="M495 377q-48 40 -113.5 68t-130 31t-100.5 -40q-33 -35 -44.5 -88t1.5 -108t43 -103.5t84.5 -79t121.5 -30.5q51 0 111.5 33.5t93.5 93.5h2l-2.5 -7.5t-9 -18.5t-18 -27t-29.5 -30t-43 -31q-86 -54 -194 -54q-54 0 -100 21t-75 55t-48.5 77.5t-18.5 88t14 86.5
q2 6 6.5 16.5t22 38.5t39.5 52t61 48.5t84 36.5q73 15 128 5q56 -10 114 -44v-90z" />
    <glyph glyph-name="d" unicode="d" horiz-adv-x="607" 
d="M36 317q12 36 35.5 71t62 66.5t84.5 48.5t108 10t127 -43l3 263l78 73v-654q0 -139 60 -152q-132 0 -143 88q-71 -99 -201 -99q-50 0 -93.5 21t-70.5 55t-45 77.5t-17.5 88t12.5 86.5zM135 418q-36 -40 -40.5 -106.5t18 -128t76.5 -106.5t125 -45q82 0 136 74v8l3 265
q-43 49 -99.5 77t-117 21t-101.5 -59z" />
    <glyph glyph-name="e" unicode="e" horiz-adv-x="572" 
d="M553 154q-2 -7 -7.5 -19.5t-31 -42.5t-62.5 -52q-84 -54 -184 -54q-54 0 -100.5 21t-76 55t-49.5 77.5t-19.5 88t13.5 86.5q2 6 7 16.5t23 38.5t40.5 52t62 48.5t84.5 36.5q75 17 165 -4q25 -6 44 -16.5t27.5 -20t13.5 -21t6 -16.5t1 -10q0 -69 -115 -72h-290
q-10 -50 1.5 -105.5t40.5 -103.5t82 -79.5t120 -31.5q49 0 107 33.5t91 94.5h6zM143 426q-25 -28 -35 -66l219 7l52 3q32 2 40 20t-4.5 39t-35.5 35q-57 33 -128.5 19t-107.5 -57z" />
    <glyph glyph-name="f" unicode="f" horiz-adv-x="486" 
d="M87 500q0 148 141 223q96 51 202 48q73 -2 80 -30q1 -2 1 -4q0 -12 -9.5 -20t-27 -11.5t-37.5 -5t-47.5 0t-50 3t-51 3.5t-46.5 3q-17 1 -30.5 -6t-21.5 -18.5t-13.5 -28t-8 -32.5t-3.5 -34t-1 -30t0.5 -24.5t0.5 -13.5l1 -24v1h155l-50 -59h-104v-393l7 -48h-94l7 40
v401h-50z" />
    <glyph glyph-name="g" unicode="g" horiz-adv-x="662" 
d="M305 -276q-214 0 -255.5 60t108.5 177q-49 12 -73 33l184 101q-83 18 -139.5 73.5t-61.5 123.5q-3 52 34 101.5t100 79.5t129 29q83 -2 331 -2l-40 -57h-137q74 -54 84 -133q9 -65 -40 -120t-118.5 -80t-125.5 -16l-126 -70q23 -8 82.5 -11t121 -6.5t122.5 -12
t99.5 -32.5t38.5 -63q0 -47 -33 -82.5t-84 -54.5t-102.5 -28.5t-98.5 -9.5zM331 108q73 0 115 54t29 137q-30 189 -175 189q-73 0 -110.5 -49t-31.5 -140q10 -87 56.5 -139t116.5 -52zM549 -190q34 20 48.5 34t14.5 32q0 30 -67 45.5t-155 18.5q-147 4 -219 18
q-88 -55 -44 -112q40 -50 151 -71q138 -25 246 23q13 5 25 12z" />
    <glyph glyph-name="h" unicode="h" horiz-adv-x="586" 
d="M52 693l82 74v-363q50 60 120.5 87.5t132 20t105 -51.5t43.5 -115v-345h-80v327q0 88 -53 129.5t-129 23t-139 -90.5v-389h-82v693z" />
    <glyph glyph-name="i" unicode="i" horiz-adv-x="254" 
d="M78 648q0 22 15 37.5t37 15.5t37.5 -15.5t15.5 -37.5t-15.5 -37t-37.5 -15t-37 15t-15 37zM169 60l4 -60h-90l4 60v440h82v-440z" />
    <glyph glyph-name="j" unicode="j" horiz-adv-x="366" 
d="M221 648q0 22 15 37.5t37 15.5t37.5 -15.5t15.5 -37.5t-15.5 -37t-37.5 -15t-37 15t-15 37zM316 148q0 -167 -29.5 -238.5t-83.5 -95.5q-28 -13 -44.5 -20t-51 -20.5t-56 -18.5t-45.5 -8t-36 4.5t-12 24.5q0 23 10.5 34.5t32 12t44 -3t56 -8t58.5 -4.5q22 -1 37 16.5
t23 53t11.5 78.5t3.5 101l-1 391l-1 53h84v-352z" />
    <glyph glyph-name="k" unicode="k" horiz-adv-x="704" 
d="M105 60v676l82 69v-521l59 56q10 8 42 39.5t59 55t71.5 44.5t87.5 21q47 2 77 -4l-35 -50q-4 -5 -20.5 -8.5t-31.5 -3.5l-14 -1q-45 -2 -82 -13t-54.5 -21t-46.5 -31.5t-39 -28.5q42 24 82 9.5t69 -48.5t61 -83t58 -93.5t60.5 -80t68.5 -43.5q-87 0 -143.5 36t-113.5 141
q-51 93 -108.5 120.5t-106.5 -23.5v-214l4 -60h-90z" />
    <glyph glyph-name="l" unicode="l" horiz-adv-x="190" 
d="M134 806q-8 -327 0 -654q3 -140 60 -152q-80 0 -109.5 16t-32.5 72v645z" />
    <glyph glyph-name="m" unicode="m" horiz-adv-x="1011" 
d="M152 0l2 388q48 54 107.5 78t109 16t83 -48.5t33.5 -106.5v-327h81v345q0 10 -4 34q47 58 104 85t104.5 20t79.5 -48t32 -109v-327h81v345q-1 73 -45.5 117t-106.5 50t-132.5 -25.5t-118.5 -96.5q-14 57 -62 89t-108 34t-125.5 -26t-112.5 -83l1 96h-84v-500h81z" />
    <glyph glyph-name="n" unicode="n" horiz-adv-x="673" 
d="M182 0l2 390q48 53 105 76.5t104 15.5t79 -48.5t32 -106.5v-327h81v345q-1 57 -29 97.5t-73.5 56t-97.5 12.5t-106.5 -31t-94.5 -76l1 96h-84v-500h81z" />
    <glyph glyph-name="o" unicode="o" horiz-adv-x="608" 
d="M309 510q107 0 188.5 -80t80.5 -186t-86 -182.5t-193 -76.5q-107 0 -189 76.5t-80 182.5q1 105 86.5 185.5t192.5 80.5zM319 5q77 0 122.5 60.5t44.5 178.5q-3 123 -61.5 186.5t-138.5 63.5q-78 0 -127 -66.5t-40 -183.5q8 -110 66 -174.5t134 -64.5z" />
    <glyph glyph-name="p" unicode="p" horiz-adv-x="605" 
d="M150 91q0 -46 41.5 -70.5t96.5 -24.5q113 0 162 106q44 92 18 207q-25 112 -99 158q-95 58 -222 -32zM67 435l-53 -39l133 131v-78q48 38 100 55t97.5 12.5t87 -22.5t71 -51t46.5 -72.5t15.5 -88.5t-22.5 -97q-4 -8 -11.5 -21.5t-33.5 -48t-53.5 -60.5t-70 -47.5
t-85.5 -21.5q-5 0 -13 0.5t-29.5 4t-38.5 10t-34.5 21t-23.5 33.5v-277l-82 -70v727z" />
    <glyph glyph-name="q" unicode="q" horiz-adv-x="666" 
d="M558 514v-734l-79 -72l-2 373q-69 -92 -191 -92q-61 0 -112 32t-78.5 80.5t-38.5 106.5t9 109q12 36 37 71.5t66 66t89 45t112 3.5t131 -52l55 63h2zM348 31q80 0 129 75l-1 284q-42 47 -95.5 74t-111 20.5t-95.5 -56.5q-35 -40 -39.5 -108t17.5 -132t74.5 -110.5
t121.5 -46.5z" />
    <glyph glyph-name="r" unicode="r" horiz-adv-x="439" 
d="M100 60l1 316v124h82v-150q3 41 62 95.5t140 54.5q50 2 82 -4l-38 -50q-4 -5 -21.5 -8.5t-33.5 -3.5l-15 -1q-53 -2 -90 -14t-54 -30t-24 -32t-8 -28v-269l3 -60h-89z" />
    <glyph glyph-name="s" unicode="s" horiz-adv-x="420" 
d="M33 207q0 -123 98 -179q75 -43 158 -25q73 16 90 69q4 13 4 27q-1 31 -38.5 54.5t-90.5 41.5t-106.5 37t-92.5 50.5t-42 73.5q-10 112 110.5 146.5t286.5 -25.5v-150h-6q-5 34 -19.5 64.5t-41.5 57.5t-73 40.5t-106 7.5q-20 -3 -34.5 -6.5t-34 -12t-29 -24.5t-7.5 -39
q3 -36 41.5 -60.5t92.5 -40t108 -32.5t93 -48t42 -76q3 -38 -13.5 -71.5t-33.5 -49.5q-28 -25 -65.5 -38t-92.5 -12t-92.5 4.5t-109.5 13.5l-2 204z" />
    <glyph glyph-name="t" unicode="t" horiz-adv-x="485" 
d="M446 148q-35 -63 -83 -103t-94.5 -48.5t-87 2t-65.5 45t-25 83.5v315h-65l146 179v-121h207l-50 -58h-157l-3 -344q-1 -64 54 -78q59 -15 132 38q47 35 82 90h9z" />
    <glyph glyph-name="u" unicode="u" horiz-adv-x="604" 
d="M18 189q0 -49 22 -90.5t56.5 -67.5t79 -36.5t89 -3.5t88 38.5t74.5 84.5q3 -58 32.5 -86.5t110.5 -28.5q-60 13 -60 153v348h-81l-2 -347v-22q-43 -72 -101.5 -98t-107.5 -9.5t-83.5 66t-34.5 117.5v293h-83z" />
    <glyph glyph-name="v" unicode="v" horiz-adv-x="617" 
d="M13 500h98l240 -414l227 414h16l-272 -500h-21z" />
    <glyph glyph-name="w" unicode="w" horiz-adv-x="875" 
d="M869 500l-253 -500h-21l-152 285l-144 -285h-26l-263 500h99l215 -418l110 220l-106 198h98l215 -418l210 418h18z" />
    <glyph glyph-name="x" unicode="x" horiz-adv-x="531" 
d="M426 0l-206 218l-221 -218h-17l230 227l-257 273h124l197 -209l212 209h18l-221 -218l265 -282h-124z" />
    <glyph glyph-name="y" unicode="y" horiz-adv-x="547" 
d="M547 500q-27 -57 -74 -158q-174 -373 -235.5 -451t-193.5 -72l1 108q4 -1 10.5 -3t26 -6t39 -5.5t45.5 1.5t48 11.5t44 27.5t37 47l-272 500h98l217 -407l187 407h22z" />
    <glyph glyph-name="z" unicode="z" horiz-adv-x="682" 
d="M136 500h470l-422 -489h143q53 0 102 28.5t86.5 78t65.5 101t50 111.5h1l-93 -330h-469l420 489h-140q-48 0 -96.5 -24.5t-85.5 -63.5t-64.5 -78t-43.5 -76h-2z" />
    <glyph glyph-name="braceleft" unicode="{" horiz-adv-x="391" 
d="M10 351q57 5 90 31t43 63.5t11.5 81.5t0.5 87.5t3.5 79t26.5 57.5t65 22h151v-9h-91q-27 0 -40.5 -21.5t-17 -56.5t-5.5 -77t-11.5 -85.5t-29 -80t-64.5 -62t-112 -30.5q67 -5 112 -30.5t64.5 -62t29 -80t11.5 -85.5t5.5 -77t17 -56.5t40.5 -21.5h91v-9h-151
q-43 0 -65 22t-26.5 57.5t-3.5 79t-0.5 87.5t-11.5 81.5t-43 63.5t-90 31z" />
    <glyph glyph-name="bar" unicode="|" horiz-adv-x="138" 
d="M60 700h18v-700h-18v700z" />
    <glyph glyph-name="braceright" unicode="}" horiz-adv-x="391" 
d="M381 351q-57 -5 -90 -31t-43 -63.5t-11.5 -81.5t-0.5 -87.5t-3.5 -79t-26.5 -57.5t-65 -22h-151v9h91q27 0 40.5 21.5t17 56.5t5.5 77t11.5 85.5t29 80t64.5 62t112 30.5q-67 5 -112 30.5t-64.5 62t-29 80t-11.5 85.5t-5.5 77t-17 56.5t-40.5 21.5h-91v9h151q43 0 65 -22
t26.5 -57.5t3.5 -79t0.5 -87.5t11.5 -81.5t43 -63.5t90 -31z" />
    <glyph glyph-name="asciitilde" unicode="~" horiz-adv-x="785" 
d="M30 243q18 44 37 76.5t45 60t54.5 40t65.5 8.5t79 -28l214 -123q37 -17 66 -21t48 0.5t39 23t32.5 35.5t33.5 49q5 7 7 11h4q-18 -44 -37 -77t-45 -61t-54.5 -40t-65.5 -8t-79 28l-214 125q-36 17 -65 20.5t-47.5 0.5t-40 -23.5t-32 -34.5t-33.5 -50q-5 -8 -8 -12h-4z
" />
    <glyph glyph-name="exclamdown" unicode="&#xa1;" horiz-adv-x="202" 
d="M46 442q0 23 16.5 39.5t39.5 16.5q21 0 37.5 -16.5t16.5 -39.5q0 -21 -16.5 -37.5t-37.5 -16.5q-23 0 -39.5 16.5t-16.5 37.5zM101 292q18 -113 33.5 -262t15.5 -181q0 -25 -13.5 -43.5t-35.5 -18.5q-23 0 -38.5 18.5t-15.5 43.5z" />
    <glyph glyph-name="cent" unicode="&#xa2;" horiz-adv-x="600" 
d="M497 244q-2 -7 -6 -19.5t-24.5 -42.5t-50.5 -52q-64 -51 -139 -54v-153h-10v153q-66 0 -119.5 32t-81 80.5t-37 106.5t12.5 109q2 6 6.5 16.5t22 38.5t39.5 52t61 48.5t84 36.5l12 3v147h10v-145q92 19 196 -44v-100q-38 34 -91.5 61.5t-104.5 36.5v-438q29 -8 56 -8
q39 0 87 37t75 98h2zM138 521q-33 -36 -40 -96.5t10 -120.5t59.5 -112t99.5 -72v437q-89 14 -129 -36z" />
    <glyph glyph-name="sterling" unicode="&#xa3;" horiz-adv-x="553" 
d="M528 12v-12h-498l1 75q81 21 117 93t-10 159l-15 23h-112v8h107q-59 99 -60 160q0 18 5.5 39.5t21 47t39 46t63 35.5t89.5 18q35 2 95 -2.5t103 -9.5l43 -6l3 -234l-6 1q-5 119 -60.5 180t-177.5 61q-55 0 -103 -29t-47 -89q0 -11 2 -23t4.5 -21.5t7.5 -23t8 -22
t10.5 -23t11 -21t12.5 -22.5t12 -20.5t13 -21.5t12 -20h185v-8h-180q1 -2 13 -23q41 -81 3 -169t-136 -146h424z" />
    <glyph glyph-name="yen" unicode="&#xa5;" horiz-adv-x="737" 
d="M432 285h175v-13h-175v-67h175v-13h-175v-169l3 -23h-105l4 23l-1 169h-171v13h171v67h-171v13h171v27l-377 381h117l350 -360l316 360h19l-326 -372v-36z" />
    <glyph glyph-name="section" unicode="&#xa7;" horiz-adv-x="482" 
d="M75 347q-2 38 19 80t73 59q-74 44 -78 120q-1 27 7.5 56t40.5 58t84 33q23 2 62.5 -1t66.5 -6l28 -4l5 -180h-4q-4 92 -41.5 139.5t-116.5 43.5q-36 -2 -65.5 -24t-28.5 -68q1 -32 14 -59t31 -42.5t36 -27t30 -15.5l13 -4q153 -49 156 -156q3 -110 -91 -140
q74 -45 77 -119q3 -73 -39.5 -110t-108.5 -40q-63 -3 -153 33l-10 208h5q11 -124 59 -178t99 -52q94 3 94 93q0 34 -10.5 59.5t-34.5 44.5t-36.5 26t-43.5 22q-4 2 -21 10t-23 11t-21.5 12t-22.5 15.5t-18.5 18t-17 23t-10 27.5t-5.5 34zM111 394q1 -36 17.5 -64.5t42.5 -47
t49 -30.5t49.5 -21.5t32.5 -13.5q52 21 52 86q0 35 -12 62t-34.5 45t-42.5 29t-48.5 23.5t-39.5 18.5q-68 -26 -66 -87z" />
    <glyph glyph-name="dieresis" unicode="&#xa8;" horiz-adv-x="385" 
d="M30 648q0 22 15 37.5t37 15.5t37.5 -15.5t15.5 -37.5t-15.5 -37t-37.5 -15t-37 15t-15 37zM250 648q0 22 15 37.5t37 15.5t37.5 -15.5t15.5 -37.5t-15.5 -37t-37.5 -15t-37 15t-15 37z" />
    <glyph glyph-name="copyright" unicode="&#xa9;" horiz-adv-x="767" 
d="M50 351q0 -139 97 -236q98 -98 236 -98q137 0 237 98q97 97 97 236t-97 236q-100 98 -237 98q-138 0 -236 -98q-97 -97 -97 -236zM56 351q0 136 96 232q97 95 231 95q135 0 232 -95q96 -96 96 -232q0 -137 -96 -231q-96 -96 -232 -96q-135 0 -231 96q-96 94 -96 231z
M228 348q0 -93 46.5 -155.5t118.5 -62.5q91 0 174 102q5 10 10 15l-1 -18q-14 -16 -23 -25q-81 -81 -162 -81q-95 1 -160 66.5t-65 158.5q0 59 26 108.5t73 80.5q54 40 128 40q36 0 69 -8q19 -4 83 -30l3 -111q-12 39 -29 67t-50 48q-60 40 -143 9q-47 -23 -72.5 -81
t-25.5 -123z" />
    <glyph glyph-name="registered" unicode="&#xae;" horiz-adv-x="548" 
d="M254 304q85 0 144.5 60t59.5 144q0 85 -59.5 144.5t-144.5 59.5q-84 0 -144 -59.5t-60 -144.5q0 -84 60 -144t144 -60zM254 706q82 0 140 -58t58 -140t-58 -139.5t-140 -57.5t-139.5 57.5t-57.5 139.5t57.5 140t139.5 58zM351 386q-6 12 -27.5 23t-42.5 19.5t-38 30.5
t-17 56v8h33q31 0 48 10t17 43q0 59 -65 59h-64v-249h-31v256h103q39 0 66.5 -19t27.5 -46q0 -23 -28.5 -42.5t-58.5 -20.5h-39q0 -27 17.5 -41.5t59.5 -22.5q57 -15 62 -64h-23z" />
    <glyph glyph-name="macron" unicode="&#xaf;" horiz-adv-x="349" 
d="M319 610h-289v16h289v-16z" />
    <glyph glyph-name="degree" unicode="&#xb0;" horiz-adv-x="219" 
d="M109 541q33 0 56.5 23.5t23.5 56.5t-23.5 56t-56.5 23t-56 -23t-23 -56t23 -56.5t56 -23.5zM109 679q24 0 41.5 -17t17.5 -41t-17.5 -41.5t-41.5 -17.5t-41 17.5t-17 41.5t17 41t41 17z" />
    <glyph glyph-name="plusminus" unicode="&#xb1;" horiz-adv-x="572" 
d="M294 644v-249h248v-18h-248v-243h-18v243h-244v18h244v249h18zM540 56h-510v18h510v-18z" />
    <glyph glyph-name="acute" unicode="&#xb4;" horiz-adv-x="319" 
d="M30 610l259 127l-184 -127h-75z" />
    <glyph glyph-name="paragraph" unicode="&#xb6;" horiz-adv-x="600" 
d="M64 488q0 -70 43.5 -123.5t103.5 -78.5t122 -25h100v-351h5v783h-80q-124 0 -209 -58.5t-85 -146.5zM488 -90v783h-5v-783h5zM217 485q0 90 53.5 146.5t159.5 56.5h3v-422h-50q-66 0 -116 63.5t-50 155.5z" />
    <glyph glyph-name="periodcentered" unicode="&#xb7;" horiz-adv-x="170" 
d="M86 300q-23 0 -39.5 16.5t-16.5 39.5q0 21 16.5 37.5t39.5 16.5q21 0 37.5 -16.5t16.5 -37.5q0 -23 -16.5 -39.5t-37.5 -16.5z" />
    <glyph glyph-name="cedilla" unicode="&#xb8;" horiz-adv-x="235" 
d="M80 0l-24 -46q30 8 63.5 7.5t59.5 -20.5t26 -54q0 -42 -38.5 -62.5t-85.5 -11.5q-36 7 -51 11v37q2 -1 12 -11.5t21.5 -19t23.5 -12.5q33 -9 57.5 9.5t24.5 59.5q0 48 -40.5 60.5t-93.5 -16.5l3 8l32 61h10z" />
    <glyph glyph-name="questiondown" unicode="&#xbf;" horiz-adv-x="600" 
d="M353 605q21 0 36.5 -15.5t15.5 -36.5q0 -20 -15.5 -35.5t-36.5 -15.5q-20 0 -35.5 15.5t-15.5 35.5q0 21 15.5 36.5t35.5 15.5zM401 438q9 -14 11.5 -33.5t-2.5 -47.5t-34 -61t-80 -63q-6 -3 -16.5 -9t-37 -26.5t-47 -44t-37 -62t-17.5 -79.5q-1 -54 40 -80t90 -28
q106 0 155 56t52 165l6 1l-3 -215q-16 -2 -41.5 -5.5t-82 -8t-86.5 -2.5q-53 3 -93.5 22.5t-60.5 47.5t-29 54t-8 47q1 33 11.5 61t34.5 51.5t40.5 37t51.5 36t45 29.5q32 21 52.5 37t47 49t38.5 71z" />
    <glyph glyph-name="Agrave" unicode="&#xc0;" horiz-adv-x="751" 
d="M291 750l-184 127l259 -127h-75zM114 164q-55 -107 2 -164h-106l309 626q-12 18 -50 38t-46 29h162l359 -693h-109l-128 253h-350zM328 609l-164 -341h336z" />
    <glyph glyph-name="Aacute" unicode="&#xc1;" horiz-adv-x="751" 
d="M352 750h-75l259 127zM114 164q-55 -107 2 -164h-106l309 626q-12 18 -50 38t-46 29h162l359 -693h-109l-128 253h-350zM328 609l-164 -341h336z" />
    <glyph glyph-name="Acircumflex" unicode="&#xc2;" horiz-adv-x="751" 
d="M358 834l-178 -94l178 137l180 -137zM114 164q-55 -107 2 -164h-106l309 626q-12 18 -50 38t-46 29h162l359 -693h-109l-128 253h-350zM328 609l-164 -341h336z" />
    <glyph glyph-name="Atilde" unicode="&#xc3;" horiz-adv-x="751" 
d="M391 799q-30 19 -61 23t-54 -4t-41.5 -19t-28.5 -21l-9 -9q4 6 10.5 15t28.5 29.5t45.5 31.5t60.5 9t74 -26q3 -2 8.5 -5t22 -8t33 -4.5t40 10.5t44.5 32q-3 -5 -8 -13t-22 -25t-36 -27t-48 -9t-59 20zM114 164q-55 -107 2 -164h-106l309 626q-12 18 -50 38t-46 29h162
l359 -693h-109l-128 253h-350zM328 609l-164 -341h336z" />
    <glyph glyph-name="Adieresis" unicode="&#xc4;" horiz-adv-x="751" 
d="M222 734q-21 0 -36.5 15.5t-15.5 36.5q0 20 15.5 35.5t36.5 15.5q20 0 35.5 -15.5t15.5 -35.5q0 -21 -15.5 -36.5t-35.5 -15.5zM472 734q-21 0 -36.5 15.5t-15.5 36.5q0 20 15.5 35.5t36.5 15.5q20 0 35.5 -15.5t15.5 -35.5q0 -21 -15.5 -36.5t-35.5 -15.5zM114 164
q-55 -107 2 -164h-106l309 626q-12 18 -50 38t-46 29h162l359 -693h-109l-128 253h-350zM328 609l-164 -341h336z" />
    <glyph glyph-name="Aring" unicode="&#xc5;" horiz-adv-x="751" 
d="M350 739q-33 0 -56 23.5t-23 56.5t23 56t56 23t56.5 -23t23.5 -56t-23.5 -56.5t-56.5 -23.5zM350 877q-24 0 -41 -17t-17 -41t17 -41.5t41 -17.5t41.5 17.5t17.5 41.5t-17.5 41t-41.5 17zM114 164q-55 -107 2 -164h-106l309 626q-12 18 -50 38t-46 29h162l359 -693h-109
l-128 253h-350zM328 609l-164 -341h336z" />
    <glyph glyph-name="AE" unicode="&#xc6;" horiz-adv-x="1107" 
d="M35 0q86 76 121 124l337 491q-8 21 -22 34t-32.5 24t-27.5 20h575l85 -247q-15 16 -34 46.5t-33.5 53.5t-47 50.5t-74.5 45t-116 28t-171 8.5v-323h269v-15h-269v-331q69 1 128.5 16t98.5 35t76.5 51.5t57 55.5t45.5 56.5t39 46.5l-137 -270h-395v340h-186l-46 -67
l-47 -71q-15 -23 -27 -42t-19.5 -34.5t-12.5 -26.5t-6.5 -22.5t-3 -17.5t1.5 -16t4.5 -13.5t6.5 -14.5t7 -15h-145zM508 355l-1 252l-174 -252h175z" />
    <glyph glyph-name="Ccedilla" unicode="&#xc7;" horiz-adv-x="782" 
d="M412 10q103 0 179.5 38.5t172.5 134.5l-14 -27q-26 -28 -56.5 -53.5t-74 -53.5t-97.5 -44.5t-110 -16.5h-3l-32 -44q30 8 63.5 7.5t59.5 -20.5t26 -54q0 -42 -38.5 -62.5t-85.5 -11.5q-36 7 -51 11v37q2 -1 12 -11.5t21.5 -19t23.5 -12.5q33 -9 57.5 9.5t24.5 59.5
q0 48 -40.5 60.5t-93.5 -16.5l3 8l21 60q-152 12 -256 114t-104 240q0 74 30 140t80.5 111t117.5 76t141.5 36t151.5 -10q32 -6 61.5 -15t59 -20t32.5 -12l4 -174q-40 82 -99.5 134.5t-121.5 70.5t-124.5 7.5t-111 -48t-79 -104.5t-30.5 -152q0 -97 35 -182t100.5 -138
t144.5 -53z" />
    <glyph glyph-name="Egrave" unicode="&#xc8;" horiz-adv-x="727" 
d="M107 877l259 -127h-75zM70 693h433l137 -270q-13 14 -37.5 47t-44 57.5t-57 55.5t-80 50.5t-110.5 33t-151 13.5v-327h304v-15h-304v-326q70 -3 131 13.5t113 51.5t93.5 74.5t87.5 96.5l-126 -248h-389v693z" />
    <glyph glyph-name="Eacute" unicode="&#xc9;" horiz-adv-x="727" 
d="M217 750l259 127l-184 -127h-75zM70 693h433l137 -270q-13 14 -37.5 47t-44 57.5t-57 55.5t-80 50.5t-110.5 33t-151 13.5v-327h304v-15h-304v-326q70 -3 131 13.5t113 51.5t93.5 74.5t87.5 96.5l-126 -248h-389v693z" />
    <glyph glyph-name="Ecircumflex" unicode="&#xca;" horiz-adv-x="727" 
d="M328 834l-178 -94l178 137l180 -137zM70 693h433l137 -270q-13 14 -37.5 47t-44 57.5t-57 55.5t-80 50.5t-110.5 33t-151 13.5v-327h304v-15h-304v-326q70 -3 131 13.5t113 51.5t93.5 74.5t87.5 96.5l-126 -248h-389v693z" />
    <glyph glyph-name="Edieresis" unicode="&#xcb;" horiz-adv-x="727" 
d="M202 734q-21 0 -36.5 15.5t-15.5 36.5q0 20 15.5 35.5t36.5 15.5q20 0 35.5 -15.5t15.5 -35.5q0 -21 -15.5 -36.5t-35.5 -15.5zM442 734q-21 0 -36.5 15.5t-15.5 36.5q0 20 15.5 35.5t36.5 15.5q20 0 35.5 -15.5t15.5 -35.5q0 -21 -15.5 -36.5t-35.5 -15.5zM70 693h433
l137 -270q-13 14 -37.5 47t-44 57.5t-57 55.5t-80 50.5t-110.5 33t-151 13.5v-327h304v-15h-304v-326q70 -3 131 13.5t113 51.5t93.5 74.5t87.5 96.5l-126 -248h-389v693z" />
    <glyph glyph-name="Igrave" unicode="&#xcc;" horiz-adv-x="194" 
d="M-126 877l259 -127h-75zM54 103q10 278 0 487l-5 103h96l-6 -103q-6 -247 0 -487l6 -103h-96z" />
    <glyph glyph-name="Iacute" unicode="&#xcd;" horiz-adv-x="194" 
d="M63 750l259 127l-184 -127h-75zM54 103q10 278 0 487l-5 103h96l-6 -103q-6 -247 0 -487l6 -103h-96z" />
    <glyph glyph-name="Icircumflex" unicode="&#xce;" horiz-adv-x="194" 
d="M98 834l-178 -94l178 137l180 -137zM54 103q10 278 0 487l-5 103h96l-6 -103q-6 -247 0 -487l6 -103h-96z" />
    <glyph glyph-name="Idieresis" unicode="&#xcf;" horiz-adv-x="253" 
d="M52 734q-21 0 -36.5 15.5t-15.5 36.5q0 20 15.5 35.5t36.5 15.5q20 0 35.5 -15.5t15.5 -35.5q0 -21 -15.5 -36.5t-35.5 -15.5zM202 734q-21 0 -36.5 15.5t-15.5 36.5q0 20 15.5 35.5t36.5 15.5q20 0 35.5 -15.5t15.5 -35.5q0 -21 -15.5 -36.5t-35.5 -15.5zM84 103
q10 278 0 487l-5 103h96l-6 -103q-6 -247 0 -487l6 -103h-96z" />
    <glyph glyph-name="Eth" unicode="&#xd0;" horiz-adv-x="766" 
d="M329 693q166 0 276.5 -100.5t110.5 -245.5t-108 -246t-272 -101h-280q6 4 19 9.5t20.5 11t7.5 15.5v304h-70v15h70v302q0 10 -24.5 21t-27.5 15h278zM336 12q124 0 200 95t76 239q0 152 -102 244t-321 92v-327h119v-15h-119v-328h147z" />
    <glyph glyph-name="Ntilde" unicode="&#xd1;" horiz-adv-x="717" 
d="M216 769q4 6 10.5 15t28.5 29.5t45.5 31.5t60.5 9t74 -26q3 -2 8.5 -5t22 -8t33 -4.5t40 10.5t44.5 32q-3 -5 -8 -13t-22 -25t-36 -27t-48 -9t-59 20t-61 23t-54 -4t-41.5 -19t-27.5 -21zM739 -14q-37 50 -118 130.5t-108 113.5l-371 360v-590h-16v597q-8 17 -24 33
t-38 34t-32 28v1h150l542 -533l5 533h19z" />
    <glyph glyph-name="Ograve" unicode="&#xd2;" horiz-adv-x="786" 
d="M198 877l259 -127h-75zM779 377q16 -149 -80.5 -261.5t-247.5 -124.5q-152 -11 -269.5 85t-133.5 245q-15 148 82 261t248 125q151 11 268.5 -85.5t132.5 -244.5zM713 377q14 133 -70 223.5t-190 81.5q-117 -9 -218 -111.5t-116 -238.5q-15 -135 62 -227.5t181 -83.5
q121 9 228 114.5t123 241.5z" />
    <glyph glyph-name="Oacute" unicode="&#xd3;" horiz-adv-x="786" 
d="M277 750l259 127l-184 -127h-75zM779 377q16 -149 -80.5 -261.5t-247.5 -124.5q-152 -11 -269.5 85t-133.5 245q-15 148 82 261t248 125q151 11 268.5 -85.5t132.5 -244.5zM713 377q14 133 -70 223.5t-190 81.5q-117 -9 -218 -111.5t-116 -238.5q-15 -135 62 -227.5
t181 -83.5q121 9 228 114.5t123 241.5z" />
    <glyph glyph-name="Ocircumflex" unicode="&#xd4;" horiz-adv-x="786" 
d="M401 834l-178 -94l178 137l180 -137zM779 377q16 -149 -80.5 -261.5t-247.5 -124.5q-152 -11 -269.5 85t-133.5 245q-15 148 82 261t248 125q151 11 268.5 -85.5t132.5 -244.5zM713 377q14 133 -70 223.5t-190 81.5q-117 -9 -218 -111.5t-116 -238.5q-15 -135 62 -227.5
t181 -83.5q121 9 228 114.5t123 241.5z" />
    <glyph glyph-name="Otilde" unicode="&#xd5;" horiz-adv-x="786" 
d="M219 769q4 6 10.5 15t28.5 29.5t45.5 31.5t60.5 9t74 -26q3 -2 8.5 -5t22 -8t33 -4.5t40 10.5t44.5 32q-3 -5 -8 -13t-22 -25t-36 -27t-48 -9t-59 20t-61 23t-54 -4t-41.5 -19t-28.5 -21zM779 377q16 -149 -80.5 -261.5t-247.5 -124.5q-152 -11 -269.5 85t-133.5 245
q-15 148 82 261t248 125q151 11 268.5 -85.5t132.5 -244.5zM713 377q14 133 -70 223.5t-190 81.5q-117 -9 -218 -111.5t-116 -238.5q-15 -135 62 -227.5t181 -83.5q121 9 228 114.5t123 241.5z" />
    <glyph glyph-name="Odieresis" unicode="&#xd6;" horiz-adv-x="786" 
d="M283 734q-21 0 -36.5 15.5t-15.5 36.5q0 20 15.5 35.5t36.5 15.5q20 0 35.5 -15.5t15.5 -35.5q0 -21 -15.5 -36.5t-35.5 -15.5zM533 734q-21 0 -36.5 15.5t-15.5 36.5q0 20 15.5 35.5t36.5 15.5q20 0 35.5 -15.5t15.5 -35.5q0 -21 -15.5 -36.5t-35.5 -15.5zM779 377
q16 -149 -80.5 -261.5t-247.5 -124.5q-152 -11 -269.5 85t-133.5 245q-15 148 82 261t248 125q151 11 268.5 -85.5t132.5 -244.5zM713 377q14 133 -70 223.5t-190 81.5q-117 -9 -218 -111.5t-116 -238.5q-15 -135 62 -227.5t181 -83.5q121 9 228 114.5t123 241.5z" />
    <glyph glyph-name="multiply" unicode="&#xd7;" horiz-adv-x="435" 
d="M405 482l-176 -176l174 -175l-12 -13l-175 175l-172 -172l-13 13l172 172l-173 173l13 13l173 -173l176 176z" />
    <glyph glyph-name="Oslash" unicode="&#xd8;" horiz-adv-x="786" 
d="M779 377q16 -149 -80.5 -261.5t-247.5 -124.5q-164 -12 -284 98l-87 -89h-14l93 96q-98 95 -111 225q-15 148 82 261t248 125q163 12 283 -98l82 84h14l-89 -91q97 -93 111 -225zM119 332q-15 -128 56 -220l473 484q-38 44 -90.5 67t-104.5 19q-117 -9 -218 -111.5
t-116 -238.5zM713 377q13 121 -59 211l-472 -484q75 -92 180 -83q121 9 228 114.5t123 241.5z" />
    <glyph glyph-name="Ugrave" unicode="&#xd9;" horiz-adv-x="610" 
d="M217 877l259 -127h-75zM22 693h101v-322q2 -183 57.5 -272t177.5 -89q136 0 227 105t91 256v322h19v-322q0 -151 -95 -265.5t-242 -114.5q-67 0 -125 20.5t-106.5 62t-76.5 113t-28 165.5v341z" />
    <glyph glyph-name="Uacute" unicode="&#xda;" horiz-adv-x="610" 
d="M227 750l259 127l-184 -127h-75zM22 693h101v-322q2 -183 57.5 -272t177.5 -89q136 0 227 105t91 256v322h19v-322q0 -151 -95 -265.5t-242 -114.5q-67 0 -125 20.5t-106.5 62t-76.5 113t-28 165.5v341z" />
    <glyph glyph-name="Ucircumflex" unicode="&#xdb;" horiz-adv-x="610" 
d="M318 834l-178 -94l178 137l180 -137zM22 693h101v-322q2 -183 57.5 -272t177.5 -89q136 0 227 105t91 256v322h19v-322q0 -151 -95 -265.5t-242 -114.5q-67 0 -125 20.5t-106.5 62t-76.5 113t-28 165.5v341z" />
    <glyph glyph-name="Udieresis" unicode="&#xdc;" horiz-adv-x="718" 
d="M221 734q-21 0 -36.5 15.5t-15.5 36.5q0 20 15.5 35.5t36.5 15.5q20 0 35.5 -15.5t15.5 -35.5q0 -21 -15.5 -36.5t-35.5 -15.5zM471 734q-21 0 -36.5 15.5t-15.5 36.5q0 20 15.5 35.5t36.5 15.5q20 0 35.5 -15.5t15.5 -35.5q0 -21 -15.5 -36.5t-35.5 -15.5zM22 693h101
v-322q2 -183 57.5 -272t177.5 -89q136 0 227 105t91 256v322h19v-322q0 -151 -95 -265.5t-242 -114.5q-67 0 -125 20.5t-106.5 62t-76.5 113t-28 165.5v341z" />
    <glyph glyph-name="Yacute" unicode="&#xdd;" horiz-adv-x="710" 
d="M277 750l259 127l-184 -127h-75zM334 23l-1 289l-377 381h117l350 -360l316 360h19l-326 -372v-298l3 -23h-105z" />
    <glyph glyph-name="Thorn" unicode="&#xde;" horiz-adv-x="545" 
d="M222 592q124 0 209 -58.5t85 -146.5q0 -70 -43.5 -123.5t-103.5 -78t-122 -25.5h-140v-160h-83v693h82v-101h116zM247 175q67 2 116.5 60t49.5 149t-59.5 145.5t-193.5 54.5h-53v-409h140z" />
    <glyph glyph-name="germandbls" unicode="&#xdf;" horiz-adv-x="600" 
d="M80 486q-8 144 94 213q81 55 183 37q98 -17 141 -89q24 -39 24 -87q1 -75 -54 -129.5t-188 -65.5q272 -22 272 -189q0 -59 -32.5 -104t-80 -65t-104.5 -19.5t-105 25.5l1 3q30 -19 70.5 -12.5t77 25.5t61.5 60t25 90q-2 183 -243 183v5q64 0 108.5 16.5t66 45.5t30 59.5
t8.5 67.5q-1 88 -43 130t-101 40q-52 -2 -89 -41.5t-37 -112.5l2 -534q0 -12 3.5 -18.5t12.5 -12t11 -7.5h-158q38 14 42 40q10 71 2 446z" />
    <glyph glyph-name="agrave" unicode="&#xe0;" horiz-adv-x="580" 
d="M55 737l259 -127h-75zM140 493q44 18 97.5 19t102.5 -14.5t90.5 -41.5t66 -64.5t24.5 -80.5q0 -87 1 -145v-14q0 -139 60 -152q-81 0 -110.5 16t-32.5 72v78l2 64l-1 -3q-66 -137 -157 -198q-55 -37 -111 -37q-89 0 -127 58q-37 55 -1 118q48 84 194 114q3 1 7.5 2l18 4
t27 6.5t32 9t34 10.5t32 11.5t27.5 12.5t18.5 13t7.5 13q2 87 -62.5 105.5t-173.5 -22.5l-148 -55zM113 117q52 -77 124 -54t137 102.5t67 144.5l1 30l-3 -2q-3 -3 -14.5 -10t-30 -15.5t-56 -19.5t-85.5 -22q-1 0 -13.5 -3l-25 -6t-30.5 -9.5t-32 -14t-27.5 -20t-19.5 -26.5
t-5 -33.5t13 -41.5z" />
    <glyph glyph-name="aacute" unicode="&#xe1;" horiz-adv-x="580" 
d="M177 610l259 127l-184 -127h-75zM140 493q44 18 97.5 19t102.5 -14.5t90.5 -41.5t66 -64.5t24.5 -80.5q0 -87 1 -145v-14q0 -139 60 -152q-81 0 -110.5 16t-32.5 72v78l2 64l-1 -3q-66 -137 -157 -198q-55 -37 -111 -37q-89 0 -127 58q-37 55 -1 118q48 84 194 114
q3 1 7.5 2l18 4t27 6.5t32 9t34 10.5t32 11.5t27.5 12.5t18.5 13t7.5 13q2 87 -62.5 105.5t-173.5 -22.5l-148 -55zM113 117q52 -77 124 -54t137 102.5t67 144.5l1 30l-3 -2q-3 -3 -14.5 -10t-30 -15.5t-56 -19.5t-85.5 -22q-1 0 -13.5 -3l-25 -6t-30.5 -9.5t-32 -14
t-27.5 -20t-19.5 -26.5t-5 -33.5t13 -41.5z" />
    <glyph glyph-name="acircumflex" unicode="&#xe2;" horiz-adv-x="580" 
d="M285 682l-178 -94l178 137l180 -137zM140 493q44 18 97.5 19t102.5 -14.5t90.5 -41.5t66 -64.5t24.5 -80.5q0 -87 1 -145v-14q0 -139 60 -152q-81 0 -110.5 16t-32.5 72v78l2 64l-1 -3q-66 -137 -157 -198q-55 -37 -111 -37q-89 0 -127 58q-37 55 -1 118q48 84 194 114
q3 1 7.5 2l18 4t27 6.5t32 9t34 10.5t32 11.5t27.5 12.5t18.5 13t7.5 13q2 87 -62.5 105.5t-173.5 -22.5l-148 -55zM113 117q52 -77 124 -54t137 102.5t67 144.5l1 30l-3 -2q-3 -3 -14.5 -10t-30 -15.5t-56 -19.5t-85.5 -22q-1 0 -13.5 -3l-25 -6t-30.5 -9.5t-32 -14
t-27.5 -20t-19.5 -26.5t-5 -33.5t13 -41.5z" />
    <glyph glyph-name="atilde" unicode="&#xe3;" horiz-adv-x="580" 
d="M127 629q4 6 10.5 15t28.5 29.5t45.5 31.5t60.5 9t74 -26q3 -2 8.5 -5t22 -8t33 -4.5t40 10.5t44.5 32q-3 -5 -8 -13t-22 -25t-36 -27t-48 -9t-59 20t-61 23t-54 -4t-41.5 -19t-28.5 -21zM140 493q44 18 97.5 19t102.5 -14.5t90.5 -41.5t66 -64.5t24.5 -80.5
q0 -87 1 -145v-14q0 -139 60 -152q-81 0 -110.5 16t-32.5 72v78l2 64l-1 -3q-66 -137 -157 -198q-55 -37 -111 -37q-89 0 -127 58q-37 55 -1 118q48 84 194 114q3 1 7.5 2l18 4t27 6.5t32 9t34 10.5t32 11.5t27.5 12.5t18.5 13t7.5 13q2 87 -62.5 105.5t-173.5 -22.5
l-148 -55zM113 117q52 -77 124 -54t137 102.5t67 144.5l1 30l-3 -2q-3 -3 -14.5 -10t-30 -15.5t-56 -19.5t-85.5 -22q-1 0 -13.5 -3l-25 -6t-30.5 -9.5t-32 -14t-27.5 -20t-19.5 -26.5t-5 -33.5t13 -41.5z" />
    <glyph glyph-name="adieresis" unicode="&#xe4;" horiz-adv-x="580" 
d="M138 648q0 22 15 37.5t37 15.5t37.5 -15.5t15.5 -37.5t-15.5 -37t-37.5 -15t-37 15t-15 37zM358 648q0 22 15 37.5t37 15.5t37.5 -15.5t15.5 -37.5t-15.5 -37t-37.5 -15t-37 15t-15 37zM140 493q44 18 97.5 19t102.5 -14.5t90.5 -41.5t66 -64.5t24.5 -80.5q0 -87 1 -145
v-14q0 -139 60 -152q-81 0 -110.5 16t-32.5 72v78l2 64l-1 -3q-66 -137 -157 -198q-55 -37 -111 -37q-89 0 -127 58q-37 55 -1 118q48 84 194 114q3 1 7.5 2l18 4t27 6.5t32 9t34 10.5t32 11.5t27.5 12.5t18.5 13t7.5 13q2 87 -62.5 105.5t-173.5 -22.5l-148 -55zM113 117
q52 -77 124 -54t137 102.5t67 144.5l1 30l-3 -2q-3 -3 -14.5 -10t-30 -15.5t-56 -19.5t-85.5 -22q-1 0 -13.5 -3l-25 -6t-30.5 -9.5t-32 -14t-27.5 -20t-19.5 -26.5t-5 -33.5t13 -41.5z" />
    <glyph glyph-name="aring" unicode="&#xe5;" horiz-adv-x="580" 
d="M295 590q31 0 52.5 21.5t21.5 52.5t-21.5 52.5t-52.5 21.5t-52.5 -21.5t-21.5 -52.5t21.5 -52.5t52.5 -21.5zM295 718q22 0 38.5 -16t16.5 -38t-16.5 -38.5t-38.5 -16.5t-38 16.5t-16 38.5t15.5 38t38.5 16zM140 493q44 18 97.5 19t102.5 -14.5t90.5 -41.5t66 -64.5
t24.5 -80.5q0 -87 1 -145v-14q0 -139 60 -152q-81 0 -110.5 16t-32.5 72v78l2 64l-1 -3q-66 -137 -157 -198q-55 -37 -111 -37q-89 0 -127 58q-37 55 -1 118q48 84 194 114q3 1 7.5 2l18 4t27 6.5t32 9t34 10.5t32 11.5t27.5 12.5t18.5 13t7.5 13q2 87 -62.5 105.5
t-173.5 -22.5l-148 -55zM113 117q52 -77 124 -54t137 102.5t67 144.5l1 30l-3 -2q-3 -3 -14.5 -10t-30 -15.5t-56 -19.5t-85.5 -22q-1 0 -13.5 -3l-25 -6t-30.5 -9.5t-32 -14t-27.5 -20t-19.5 -26.5t-5 -33.5t13 -41.5z" />
    <glyph glyph-name="ae" unicode="&#xe6;" horiz-adv-x="992" 
d="M688 -14q-107 0 -175.5 74.5t-70.5 170.5l-1 -1l-1 -3q-66 -137 -157 -198q-55 -37 -111 -37q-89 0 -127 58q-37 55 -1 118q48 84 194 114q3 1 7.5 2l18 4t27 6.5t32 9t34 10.5t32 11.5t27.5 12.5t18.5 13t7.5 13q2 87 -62.5 105.5t-173.5 -22.5l-148 -55l82 101
q93 37 202 4t156 -108q69 93 175 117q75 17 165 -4q25 -6 44 -16.5t27.5 -20t13.5 -21t6 -16.5t1 -10q0 -69 -115 -72h-290q-2 -9 -4 -31v-4q-3 -49 12 -98.5t45 -91.5t80 -68.5t111 -26.5q49 0 107 33.5t91 94.5h6q-2 -7 -7.5 -19.5t-31 -42.5t-62.5 -52q-84 -54 -184 -54z
M747 367l52 3q32 2 40 20t-4.5 39t-35.5 35q-57 33 -128.5 19t-107.5 -57q-25 -28 -35 -66zM113 117q52 -77 124 -54t137 102.5t67 144.5l1 30l-3 -2q-3 -3 -14.5 -10t-30 -15.5t-56 -19.5t-85.5 -22q-1 0 -13.5 -3l-25 -6t-30.5 -9.5t-32 -14t-27.5 -20t-19.5 -26.5
t-5 -33.5t13 -41.5z" />
    <glyph glyph-name="ccedilla" unicode="&#xe7;" horiz-adv-x="569" 
d="M564 154l-2.5 -7.5t-9 -18.5t-18 -27t-29.5 -30t-43 -31q-86 -54 -194 -54h-4l-27 -52q30 8 63.5 7.5t59.5 -20.5t26 -54q0 -42 -38.5 -62.5t-85.5 -11.5q-36 7 -51 11v37q2 -1 12 -11.5t21.5 -19t23.5 -12.5q33 -9 57.5 9.5t24.5 59.5q0 48 -40.5 60.5t-93.5 -16.5l3 8
l35 67q-51 3 -94.5 25t-71.5 56t-45.5 76.5t-16.5 86t14 84.5q2 6 6.5 16.5t22 38.5t39.5 52t61 48.5t84 36.5q73 15 128 5q56 -10 114 -44v-90q-48 40 -113.5 68t-130 31t-100.5 -40q-33 -35 -44.5 -88t1.5 -108t43 -103.5t84.5 -79t121.5 -30.5q51 0 111.5 33.5t93.5 93.5
h2z" />
    <glyph glyph-name="egrave" unicode="&#xe8;" horiz-adv-x="514" 
d="M249 610l-184 127l259 -127h-75zM553 154q-2 -7 -7.5 -19.5t-31 -42.5t-62.5 -52q-84 -54 -184 -54q-54 0 -100.5 21t-76 55t-49.5 77.5t-19.5 88t13.5 86.5q2 6 7 16.5t23 38.5t40.5 52t62 48.5t84.5 36.5q75 17 165 -4q25 -6 44 -16.5t27.5 -20t13.5 -21t6 -16.5t1 -10
q0 -69 -115 -72h-290q-10 -50 1.5 -105.5t40.5 -103.5t82 -79.5t120 -31.5q49 0 107 33.5t91 94.5h6zM143 426q-25 -28 -35 -66l219 7l52 3q32 2 40 20t-4.5 39t-35.5 35q-57 33 -128.5 19t-107.5 -57z" />
    <glyph glyph-name="eacute" unicode="&#xe9;" horiz-adv-x="514" 
d="M252 610h-75l259 127zM553 154q-2 -7 -7.5 -19.5t-31 -42.5t-62.5 -52q-84 -54 -184 -54q-54 0 -100.5 21t-76 55t-49.5 77.5t-19.5 88t13.5 86.5q2 6 7 16.5t23 38.5t40.5 52t62 48.5t84.5 36.5q75 17 165 -4q25 -6 44 -16.5t27.5 -20t13.5 -21t6 -16.5t1 -10
q0 -69 -115 -72h-290q-10 -50 1.5 -105.5t40.5 -103.5t82 -79.5t120 -31.5q49 0 107 33.5t91 94.5h6zM143 426q-25 -28 -35 -66l219 7l52 3q32 2 40 20t-4.5 39t-35.5 35q-57 33 -128.5 19t-107.5 -57z" />
    <glyph glyph-name="ecircumflex" unicode="&#xea;" horiz-adv-x="514" 
d="M275 682l-178 -94l178 137l180 -137zM553 154q-2 -7 -7.5 -19.5t-31 -42.5t-62.5 -52q-84 -54 -184 -54q-54 0 -100.5 21t-76 55t-49.5 77.5t-19.5 88t13.5 86.5q2 6 7 16.5t23 38.5t40.5 52t62 48.5t84.5 36.5q75 17 165 -4q25 -6 44 -16.5t27.5 -20t13.5 -21t6 -16.5
t1 -10q0 -69 -115 -72h-290q-10 -50 1.5 -105.5t40.5 -103.5t82 -79.5t120 -31.5q49 0 107 33.5t91 94.5h6zM143 426q-25 -28 -35 -66l219 7l52 3q32 2 40 20t-4.5 39t-35.5 35q-57 33 -128.5 19t-107.5 -57z" />
    <glyph glyph-name="edieresis" unicode="&#xeb;" horiz-adv-x="572" 
d="M179 596q-22 0 -37 15t-15 37t15 37.5t37 15.5t37.5 -15.5t15.5 -37.5t-15.5 -37t-37.5 -15zM419 596q-22 0 -37 15t-15 37t15 37.5t37 15.5t37.5 -15.5t15.5 -37.5t-15.5 -37t-37.5 -15zM553 154q-2 -7 -7.5 -19.5t-31 -42.5t-62.5 -52q-84 -54 -184 -54
q-54 0 -100.5 21t-76 55t-49.5 77.5t-19.5 88t13.5 86.5q2 6 7 16.5t23 38.5t40.5 52t62 48.5t84.5 36.5q75 17 165 -4q25 -6 44 -16.5t27.5 -20t13.5 -21t6 -16.5t1 -10q0 -69 -115 -72h-290q-10 -50 1.5 -105.5t40.5 -103.5t82 -79.5t120 -31.5q49 0 107 33.5t91 94.5h6z
M143 426q-25 -28 -35 -66l219 7l52 3q32 2 40 20t-4.5 39t-35.5 35q-57 33 -128.5 19t-107.5 -57z" />
    <glyph glyph-name="igrave" unicode="&#xec;" horiz-adv-x="254" 
d="M-90 737l259 -127h-75zM164 60l4 -60h-90l4 60v440h82v-440z" />
    <glyph glyph-name="iacute" unicode="&#xed;" horiz-adv-x="254" 
d="M89 610l259 127l-184 -127h-75zM164 60l4 -60h-90l4 60v440h82v-440z" />
    <glyph glyph-name="icircumflex" unicode="&#xee;" horiz-adv-x="254" 
d="M128 682l-178 -94l178 137l180 -137zM164 60l4 -60h-90l4 60v440h82v-440z" />
    <glyph glyph-name="idieresis" unicode="&#xef;" horiz-adv-x="254" 
d="M-2 648q0 22 15 37.5t37 15.5t37.5 -15.5t15.5 -37.5t-15.5 -37t-37.5 -15t-37 15t-15 37zM158 648q0 22 15 37.5t37 15.5t37.5 -15.5t15.5 -37.5t-15.5 -37t-37.5 -15t-37 15t-15 37zM164 60l4 -60h-90l4 60v440h82v-440z" />
    <glyph glyph-name="eth" unicode="&#xf0;" horiz-adv-x="600" 
d="M383 657q85 -92 128.5 -199t43.5 -198q0 -121 -82.5 -198t-193.5 -77q-106 0 -183.5 76t-75.5 183q1 106 82 186t187 80q46 0 91 -16t64 -57q-34 105 -112 193l-114 -62v17l103 56q-51 54 -119 98l39 35q74 -46 131 -106l132 72v-17zM299 3q80 0 122.5 68.5t30.5 197.5
q-11 113 -61.5 168.5t-124.5 55.5q-76 0 -118.5 -65t-33.5 -184q8 -112 59.5 -176.5t125.5 -64.5z" />
    <glyph glyph-name="ntilde" unicode="&#xf1;" horiz-adv-x="633" 
d="M137 629q4 6 10.5 15t28.5 29.5t45.5 31.5t60.5 9t74 -26q3 -2 8.5 -5t22 -8t33 -4.5t40 10.5t44.5 32q-3 -5 -8 -13t-22 -25t-36 -27t-48 -9t-59 20t-61 23t-54 -4t-41.5 -19t-28.5 -21zM182 0l2 390q48 53 105 76.5t104 15.5t79 -48.5t32 -106.5v-327h81v345
q-1 57 -29 97.5t-73.5 56t-97.5 12.5t-106.5 -31t-94.5 -76l1 96h-84v-500h81z" />
    <glyph glyph-name="ograve" unicode="&#xf2;" horiz-adv-x="568" 
d="M65 737l259 -127h-75zM309 510q107 0 188.5 -80t80.5 -186t-86 -182.5t-193 -76.5q-107 0 -189 76.5t-80 182.5q1 105 86.5 185.5t192.5 80.5zM319 5q77 0 122.5 60.5t44.5 178.5q-3 123 -61.5 186.5t-138.5 63.5q-78 0 -127 -66.5t-40 -183.5q8 -110 66 -174.5
t134 -64.5z" />
    <glyph glyph-name="oacute" unicode="&#xf3;" horiz-adv-x="568" 
d="M208 610l259 127l-184 -127h-75zM309 510q107 0 188.5 -80t80.5 -186t-86 -182.5t-193 -76.5q-107 0 -189 76.5t-80 182.5q1 105 86.5 185.5t192.5 80.5zM319 5q77 0 122.5 60.5t44.5 178.5q-3 123 -61.5 186.5t-138.5 63.5q-78 0 -127 -66.5t-40 -183.5
q8 -110 66 -174.5t134 -64.5z" />
    <glyph glyph-name="ocircumflex" unicode="&#xf4;" horiz-adv-x="568" 
d="M317 682l-178 -94l178 137l180 -137zM309 510q107 0 188.5 -80t80.5 -186t-86 -182.5t-193 -76.5q-107 0 -189 76.5t-80 182.5q1 105 86.5 185.5t192.5 80.5zM319 5q77 0 122.5 60.5t44.5 178.5q-3 123 -61.5 186.5t-138.5 63.5q-78 0 -127 -66.5t-40 -183.5
q8 -110 66 -174.5t134 -64.5z" />
    <glyph glyph-name="otilde" unicode="&#xf5;" horiz-adv-x="568" 
d="M109 629q4 6 10.5 15t28.5 29.5t45.5 31.5t60.5 9t74 -26q3 -2 8.5 -5t22 -8t33 -4.5t40 10.5t44.5 32q-3 -5 -8 -13t-22 -25t-36 -27t-48 -9t-59 20t-61 23t-54 -4t-41.5 -19t-28.5 -21zM309 510q107 0 188.5 -80t80.5 -186t-86 -182.5t-193 -76.5q-107 0 -189 76.5
t-80 182.5q1 105 86.5 185.5t192.5 80.5zM319 5q77 0 122.5 60.5t44.5 178.5q-3 123 -61.5 186.5t-138.5 63.5q-78 0 -127 -66.5t-40 -183.5q8 -110 66 -174.5t134 -64.5z" />
    <glyph glyph-name="odieresis" unicode="&#xf6;" horiz-adv-x="608" 
d="M138 648q0 22 15 37.5t37 15.5t37.5 -15.5t15.5 -37.5t-15.5 -37t-37.5 -15t-37 15t-15 37zM378 648q0 22 15 37.5t37 15.5t37.5 -15.5t15.5 -37.5t-15.5 -37t-37.5 -15t-37 15t-15 37zM309 510q107 0 188.5 -80t80.5 -186t-86 -182.5t-193 -76.5q-107 0 -189 76.5
t-80 182.5q1 105 86.5 185.5t192.5 80.5zM319 5q77 0 122.5 60.5t44.5 178.5q-3 123 -61.5 186.5t-138.5 63.5q-78 0 -127 -66.5t-40 -183.5q8 -110 66 -174.5t134 -64.5z" />
    <glyph glyph-name="divide" unicode="&#xf7;" horiz-adv-x="570" 
d="M310 464v-51h-48v51h48zM540 297h-510v18h510v-18zM310 189v-51h-48v51h48z" />
    <glyph glyph-name="oslash" unicode="&#xf8;" horiz-adv-x="568" 
d="M484 442q95 -84 94 -198q-1 -106 -86 -182.5t-193 -76.5q-105 0 -188 75l-58 -60h-14l65 67q-75 75 -74 177q1 105 86.5 185.5t192.5 80.5q92 0 168 -62l50 52h14zM119 244q6 -72 34 -127l287 294q-57 83 -154 83q-78 0 -127 -66.5t-40 -183.5zM319 5q77 0 122.5 60.5
t44.5 178.5q-3 96 -41 158l-287 -295q28 -49 70.5 -75.5t90.5 -26.5z" />
    <glyph glyph-name="ugrave" unicode="&#xf9;" horiz-adv-x="600" 
d="M54 737l259 -127h-75zM13 189q0 -49 22 -90.5t57 -67.5t80.5 -36.5t90.5 -3.5t89 38.5t75 84.5q3 -58 32.5 -86.5t110.5 -28.5q-60 13 -60 153v348h-81l-2 -347v-22q-43 -72 -101.5 -98t-107.5 -9.5t-83.5 66t-34.5 117.5v293h-88z" />
    <glyph glyph-name="uacute" unicode="&#xfa;" horiz-adv-x="554" 
d="M177 610l259 127l-184 -127h-75zM13 189q0 -49 22 -90.5t57 -67.5t80.5 -36.5t90.5 -3.5t89 38.5t75 84.5q3 -58 32.5 -86.5t110.5 -28.5q-60 13 -60 153v348h-81l-2 -347v-22q-43 -72 -101.5 -98t-107.5 -9.5t-83.5 66t-34.5 117.5v293h-88z" />
    <glyph glyph-name="ucircumflex" unicode="&#xfb;" horiz-adv-x="554" 
d="M234 682l-178 -94l178 137l180 -137zM13 189q0 -49 22 -90.5t57 -67.5t80.5 -36.5t90.5 -3.5t89 38.5t75 84.5q3 -58 32.5 -86.5t110.5 -28.5q-60 13 -60 153v348h-81l-2 -347v-22q-43 -72 -101.5 -98t-107.5 -9.5t-83.5 66t-34.5 117.5v293h-88z" />
    <glyph glyph-name="udieresis" unicode="&#xfc;" horiz-adv-x="604" 
d="M88 648q0 22 15 37.5t37 15.5t37.5 -15.5t15.5 -37.5t-15.5 -37t-37.5 -15t-37 15t-15 37zM358 648q0 22 15 37.5t37 15.5t37.5 -15.5t15.5 -37.5t-15.5 -37t-37.5 -15t-37 15t-15 37zM13 189q0 -49 22 -90.5t57 -67.5t80.5 -36.5t90.5 -3.5t89 38.5t75 84.5
q3 -58 32.5 -86.5t110.5 -28.5q-60 13 -60 153v348h-81l-2 -347v-22q-43 -72 -101.5 -98t-107.5 -9.5t-83.5 66t-34.5 117.5v293h-88z" />
    <glyph glyph-name="yacute" unicode="&#xfd;" horiz-adv-x="547" 
d="M207 610l259 127l-184 -127h-75zM547 500q-27 -57 -74 -158q-174 -373 -235.5 -451t-193.5 -72l1 108q4 -1 10.5 -3t26 -6t39 -5.5t45.5 1.5t48 11.5t44 27.5t37 47l-272 500h108l210 -395l184 395h22z" />
    <glyph glyph-name="thorn" unicode="&#xfe;" horiz-adv-x="600" 
d="M74 658l73 92v-301q45 38 94 55t92 12.5t82 -22.5t66 -51t43.5 -72.5t15 -88.5t-21.5 -97q-4 -8 -11 -21.5t-31 -48t-50 -60.5t-66 -47.5t-80 -21.5q-4 0 -11.5 0.5t-27.5 4t-36.5 10t-33 21t-22.5 33.5v-277l-75 -70v950zM150 88q0 -46 39 -70.5t91 -24.5q106 0 152 107
q41 96 16 215q-25 117 -97 162q-88 56 -204 -32z" />
    <glyph glyph-name="ydieresis" unicode="&#xff;" horiz-adv-x="547" 
d="M138 648q0 22 15 37.5t37 15.5t37.5 -15.5t15.5 -37.5t-15.5 -37t-37.5 -15t-37 15t-15 37zM378 648q0 22 15 37.5t37 15.5t37.5 -15.5t15.5 -37.5t-15.5 -37t-37.5 -15t-37 15t-15 37zM547 500q-27 -57 -74 -158q-174 -373 -235.5 -451t-193.5 -72l1 108q4 -1 10.5 -3
t26 -6t39 -5.5t45.5 1.5t48 11.5t44 27.5t37 47l-272 500h108l210 -395l184 395h22z" />
    <glyph glyph-name="Amacron" unicode="&#x100;" horiz-adv-x="751" 
d="M478 750h-289v16h289v-16zM114 164q-55 -107 2 -164h-106l309 626q-12 18 -50 38t-46 29h162l359 -693h-109l-128 253h-350zM328 609l-164 -341h336z" />
    <glyph glyph-name="amacron" unicode="&#x101;" horiz-adv-x="580" 
d="M398 626v-16h-289v16h289zM140 493q44 18 97.5 19t102.5 -14.5t90.5 -41.5t66 -64.5t24.5 -80.5q0 -87 1 -145v-14q0 -139 60 -152q-81 0 -110.5 16t-32.5 72v78l2 64l-1 -3q-66 -137 -157 -198q-55 -37 -111 -37q-89 0 -127 58q-37 55 -1 118q48 84 194 114q3 1 7.5 2
l18 4t27 6.5t32 9t34 10.5t32 11.5t27.5 12.5t18.5 13t7.5 13q2 87 -62.5 105.5t-173.5 -22.5l-148 -55zM113 117q52 -77 124 -54t137 102.5t67 144.5l1 30l-3 -2q-3 -3 -14.5 -10t-30 -15.5t-56 -19.5t-85.5 -22q-1 0 -13.5 -3l-25 -6t-30.5 -9.5t-32 -14t-27.5 -20
t-19.5 -26.5t-5 -33.5t13 -41.5z" />
    <glyph glyph-name="Abreve" unicode="&#x102;" horiz-adv-x="751" 
d="M346 739q-41 0 -71 28.5t-34 69.5h19q3 -31 27 -55.5t59 -24.5q36 0 60.5 24.5t27.5 55.5h19q-4 -41 -34.5 -69.5t-72.5 -28.5zM114 164q-55 -107 2 -164h-106l309 626q-12 18 -50 38t-46 29h162l359 -693h-109l-128 253h-350zM328 609l-164 -341h336z" />
    <glyph glyph-name="abreve" unicode="&#x103;" horiz-adv-x="580" 
d="M384 709q-3 -31 -27.5 -55.5t-60.5 -24.5q-35 0 -59 24.5t-27 55.5h-19q4 -41 34 -69.5t71 -28.5q42 0 72.5 28.5t34.5 69.5h-19zM140 493q44 18 97.5 19t102.5 -14.5t90.5 -41.5t66 -64.5t24.5 -80.5q0 -87 1 -145v-14q0 -139 60 -152q-81 0 -110.5 16t-32.5 72v78l2 64
l-1 -3q-66 -137 -157 -198q-55 -37 -111 -37q-89 0 -127 58q-37 55 -1 118q48 84 194 114q3 1 7.5 2l18 4t27 6.5t32 9t34 10.5t32 11.5t27.5 12.5t18.5 13t7.5 13q2 87 -62.5 105.5t-173.5 -22.5l-148 -55zM113 117q52 -77 124 -54t137 102.5t67 144.5l1 30l-3 -2
q-3 -3 -14.5 -10t-30 -15.5t-56 -19.5t-85.5 -22q-1 0 -13.5 -3l-25 -6t-30.5 -9.5t-32 -14t-27.5 -20t-19.5 -26.5t-5 -33.5t13 -41.5z" />
    <glyph glyph-name="Aogonek" unicode="&#x104;" horiz-adv-x="751" 
d="M613 -150q17 0 54 21l2 -2q-46 -31 -91 -31q-52 0 -73 33t2 72.5t82 56.5q32 9 20 46q-4 12 -31 70l-67 141h-323l-23 -55q-17 -38 -27 -65.5t-15.5 -43t-4 -31.5t2.5 -20.5t9 -20.5t10 -21h-105q23 20 46.5 56.5t34.5 67.5l217 491q-8 21 -22 34t-32.5 24t-27.5 20h151
l273 -569q43 -84 57 -102.5t32 -21.5h-128q-61 0 -80 -50q-17 -42 7 -75q19 -24 50 -25zM508 265l-161 342l-156 -342h317z" />
    <glyph glyph-name="aogonek" unicode="&#x105;" horiz-adv-x="580" 
d="M522 152q0 -139 60 -152q-95 0 -120 23q-20 19 -23 65v78l2 64l-1 -3q-66 -137 -157 -198q-55 -37 -111 -37q-89 0 -127 58q-37 55 -1 118q48 84 194 114q3 1 7.5 2l18 4t27 6.5t32 9t34 10.5t32 11.5t27.5 12.5t18.5 13t7.5 13q2 87 -62.5 105.5t-173.5 -22.5l-148 -55
l82 101q44 18 97.5 19t102.5 -14.5t90.5 -41.5t66 -64.5t24.5 -80.5q0 -87 1 -145v-14zM441 310l1 30l-3 -2q-3 -3 -14.5 -10t-30 -15.5t-56 -19.5t-85.5 -22q-1 0 -13.5 -3l-25 -6t-30.5 -9.5t-32 -14t-27.5 -20t-19.5 -26.5t-5 -33.5t13 -41.5q52 -77 124 -54t137 102.5
t67 144.5zM441 -127q17 0 54 21l2 -2q-46 -31 -91 -31q-52 0 -73 33t2 72.5t82 56.5h45q-60 -1 -79 -51q-16 -42 9 -75q17 -24 49 -24z" />
    <glyph glyph-name="Cacute" unicode="&#x106;" horiz-adv-x="782" 
d="M347 750l259 127l-184 -127h-75zM132 383q0 -97 35 -182t100.5 -138t144.5 -53q103 0 179.5 38.5t172.5 134.5l-14 -27q-26 -28 -56.5 -53.5t-74 -53.5t-97.5 -44.5t-110 -16.5q-163 1 -277.5 105t-114.5 250q0 74 30 140t80.5 111t117.5 76t141.5 36t151.5 -10
q32 -6 61.5 -15t59 -20t32.5 -12l4 -174q-40 82 -99.5 134.5t-121.5 70.5t-124.5 7.5t-111 -48t-79 -104.5t-30.5 -152z" />
    <glyph glyph-name="cacute" unicode="&#x107;" horiz-adv-x="540" 
d="M495 377q-48 40 -113.5 68t-130 31t-100.5 -40q-33 -35 -44.5 -88t1.5 -108t43 -103.5t84.5 -79t121.5 -30.5q51 0 111.5 33.5t93.5 93.5h2l-2.5 -7.5t-9 -18.5t-18 -27t-29.5 -30t-43 -31q-86 -54 -194 -54q-54 0 -100 21t-75 55t-48.5 77.5t-18.5 88t14 86.5
q2 6 6.5 16.5t22 38.5t39.5 52t61 48.5t84 36.5q73 15 128 5q56 -10 114 -44v-90z" />
    <glyph glyph-name="Ccaron" unicode="&#x10c;" horiz-adv-x="782" 
d="M408 740l-178 137l178 -94l180 94zM132 383q0 -97 35 -182t100.5 -138t144.5 -53q103 0 179.5 38.5t172.5 134.5l-14 -27q-26 -28 -56.5 -53.5t-74 -53.5t-97.5 -44.5t-110 -16.5q-163 1 -277.5 105t-114.5 250q0 74 30 140t80.5 111t117.5 76t141.5 36t151.5 -10
q32 -6 61.5 -15t59 -20t32.5 -12l4 -174q-40 82 -99.5 134.5t-121.5 70.5t-124.5 7.5t-111 -48t-79 -104.5t-30.5 -152z" />
    <glyph glyph-name="ccaron" unicode="&#x10d;" horiz-adv-x="518" 
d="M277 588l-178 137l178 -94l180 94zM495 377q-48 40 -113.5 68t-130 31t-100.5 -40q-33 -35 -44.5 -88t1.5 -108t43 -103.5t84.5 -79t121.5 -30.5q51 0 111.5 33.5t93.5 93.5h2l-2.5 -7.5t-9 -18.5t-18 -27t-29.5 -30t-43 -31q-86 -54 -194 -54q-54 0 -100 21t-75 55
t-48.5 77.5t-18.5 88t14 86.5q2 6 6.5 16.5t22 38.5t39.5 52t61 48.5t84 36.5q73 15 128 5q56 -10 114 -44v-90z" />
    <glyph glyph-name="Dcaron" unicode="&#x10e;" horiz-adv-x="766" 
d="M234 740l-178 137l178 -94l180 94zM329 693q166 0 276.5 -100.5t110.5 -245.5t-108 -246t-272 -101h-280q6 4 19 9.5t20.5 11t7.5 15.5v621q0 10 -24.5 21t-27.5 15h278zM336 12q124 0 200 95t76 239q0 152 -102 244t-321 92v-670h147z" />
    <glyph glyph-name="dcaron" unicode="&#x10f;" horiz-adv-x="656" 
d="M534 152q0 -139 60 -152q-132 0 -143 88q-71 -99 -201 -99q-50 0 -93.5 21t-70.5 55t-45 77.5t-17.5 88t12.5 86.5q12 36 35.5 71t62 66.5t84.5 48.5t108 10t127 -43l3 263l78 73v-183l46 70h55l-101 -96v-445zM453 379q-43 49 -99.5 77t-117 21t-101.5 -59
q-36 -40 -40.5 -106.5t18 -128t76.5 -106.5t125 -45q82 0 136 74v8z" />
    <glyph glyph-name="dcroat" unicode="&#x110;" horiz-adv-x="607" 
d="M36 317q12 36 35.5 71t62 66.5t84.5 48.5t108 10t127 -43l3 263l78 73v-654q0 -139 60 -152q-132 0 -143 88q-71 -99 -201 -99q-50 0 -93.5 21t-70.5 55t-45 77.5t-17.5 88t12.5 86.5zM135 418q-36 -40 -40.5 -106.5t18 -128t76.5 -106.5t125 -45q82 0 136 74v8l3 265
q-43 49 -99.5 77t-117 21t-101.5 -59z" />
    <glyph glyph-name="dcroat" unicode="&#x111;" horiz-adv-x="607" 
d="M36 317q12 36 35.5 71t62 66.5t84.5 48.5t108 10t127 -43l3 263l78 73v-654q0 -139 60 -152q-132 0 -143 88q-71 -99 -201 -99q-50 0 -93.5 21t-70.5 55t-45 77.5t-17.5 88t12.5 86.5zM135 418q-36 -40 -40.5 -106.5t18 -128t76.5 -106.5t125 -45q82 0 136 74v8l3 265
q-43 49 -99.5 77t-117 21t-101.5 -59z" />
    <glyph glyph-name="Emacron" unicode="&#x112;" horiz-adv-x="727" 
d="M424 765v-15h-269v15h269zM70 693h433l137 -270q-13 14 -37.5 47t-44 57.5t-57 55.5t-80 50.5t-110.5 33t-151 13.5v-327h304v-15h-304v-326q70 -3 131 13.5t113 51.5t93.5 74.5t87.5 96.5l-126 -248h-389v693z" />
    <glyph glyph-name="emacron" unicode="&#x113;" horiz-adv-x="514" 
d="M418 610h-289v16h289v-16zM553 154q-2 -7 -7.5 -19.5t-31 -42.5t-62.5 -52q-84 -54 -184 -54q-54 0 -100.5 21t-76 55t-49.5 77.5t-19.5 88t13.5 86.5q2 6 7 16.5t23 38.5t40.5 52t62 48.5t84.5 36.5q75 17 165 -4q25 -6 44 -16.5t27.5 -20t13.5 -21t6 -16.5t1 -10
q0 -69 -115 -72h-290q-10 -50 1.5 -105.5t40.5 -103.5t82 -79.5t120 -31.5q49 0 107 33.5t91 94.5h6zM143 426q-25 -28 -35 -66l219 7l52 3q32 2 40 20t-4.5 39t-35.5 35q-57 33 -128.5 19t-107.5 -57z" />
    <glyph glyph-name="Edotaccent" unicode="&#x116;" horiz-adv-x="710" 
d="M70 693h433l137 -270q-13 14 -37.5 47t-44 57.5t-57 55.5t-80 50.5t-110.5 33t-151 13.5v-327h304v-15h-304v-326q70 -3 131 13.5t113 51.5t93.5 74.5t87.5 96.5l-126 -248h-389v693z" />
    <glyph glyph-name="edotaccent" unicode="&#x117;" horiz-adv-x="514" 
d="M309 610q-17 0 -30 13t-13 30t13 29.5t30 12.5t29.5 -12.5t12.5 -29.5t-12.5 -30t-29.5 -13zM553 154q-2 -7 -7.5 -19.5t-31 -42.5t-62.5 -52q-84 -54 -184 -54q-54 0 -100.5 21t-76 55t-49.5 77.5t-19.5 88t13.5 86.5q2 6 7 16.5t23 38.5t40.5 52t62 48.5t84.5 36.5
q75 17 165 -4q25 -6 44 -16.5t27.5 -20t13.5 -21t6 -16.5t1 -10q0 -69 -115 -72h-290q-10 -50 1.5 -105.5t40.5 -103.5t82 -79.5t120 -31.5q49 0 107 33.5t91 94.5h6zM143 426q-25 -28 -35 -66l219 7l52 3q32 2 40 20t-4.5 39t-35.5 35q-57 33 -128.5 19t-107.5 -57z" />
    <glyph glyph-name="Eogonek" unicode="&#x118;" horiz-adv-x="727" 
d="M463 0q-61 0 -80 -50q-17 -42 7 -75q19 -24 50 -25q17 0 54 21l2 -2q-46 -31 -91 -31q-52 0 -73 33t2 72.5t82 56.5h-340v693h433l137 -270q-13 14 -37.5 47t-44 57.5t-57 55.5t-80 50.5t-110.5 33t-151 13.5v-327h304v-15h-304v-326q70 -3 131 13.5t113 51.5t93.5 74.5
t87.5 96.5l-126 -248h-2z" />
    <glyph glyph-name="eogonek" unicode="&#x119;" horiz-adv-x="514" 
d="M553 154q-2 -7 -7.5 -19.5t-31 -42.5t-62.5 -52q-45 -29 -102 -45q-29 -32 -15 -77t60 -45q17 0 54 21l2 -2q-46 -31 -91 -31q-61 0 -77.5 44.5t23.5 82.5q-26 -2 -38 -2q-54 0 -100.5 21t-76 55t-49.5 77.5t-19.5 88t13.5 86.5q2 6 7 16.5t23 38.5t40.5 52t62 48.5
t84.5 36.5q75 17 165 -4q25 -6 44 -16.5t27.5 -20t13.5 -21t6 -16.5t1 -10q0 -69 -115 -72h-290q-10 -50 1.5 -105.5t40.5 -103.5t82 -79.5t120 -31.5q49 0 107 33.5t91 94.5h6zM143 426q-25 -28 -35 -66l219 7l52 3q32 2 40 20t-4.5 39t-35.5 35q-57 33 -128.5 19
t-107.5 -57z" />
    <glyph glyph-name="Ecaron" unicode="&#x11a;" horiz-adv-x="727" 
d="M298 740l-178 137l178 -94l180 94zM70 693h433l137 -270q-13 14 -37.5 47t-44 57.5t-57 55.5t-80 50.5t-110.5 33t-151 13.5v-327h304v-15h-304v-326q70 -3 131 13.5t113 51.5t93.5 74.5t87.5 96.5l-126 -248h-389v693z" />
    <glyph glyph-name="ecaron" unicode="&#x11b;" horiz-adv-x="514" 
d="M276 588l-178 137l178 -94l180 94zM553 154q-2 -7 -7.5 -19.5t-31 -42.5t-62.5 -52q-84 -54 -184 -54q-54 0 -100.5 21t-76 55t-49.5 77.5t-19.5 88t13.5 86.5q2 6 7 16.5t23 38.5t40.5 52t62 48.5t84.5 36.5q75 17 165 -4q25 -6 44 -16.5t27.5 -20t13.5 -21t6 -16.5
t1 -10q0 -69 -115 -72h-290q-10 -50 1.5 -105.5t40.5 -103.5t82 -79.5t120 -31.5q49 0 107 33.5t91 94.5h6zM143 426q-25 -28 -35 -66l219 7l52 3q32 2 40 20t-4.5 39t-35.5 35q-57 33 -128.5 19t-107.5 -57z" />
    <glyph glyph-name="uni0122" unicode="&#x122;" horiz-adv-x="724" 
d="M46 343q0 71 22.5 131t61.5 100.5t91.5 70.5t113 42.5t125.5 16.5t130 -9q31 -6 61 -15t58.5 -19.5t33.5 -12.5l5 -174q-29 83 -85.5 136.5t-122 71.5t-135 4.5t-125.5 -55t-92 -117t-36 -171.5q0 -145 69 -239t189 -98q84 1 170 91l1 236l-289 7v10l380 5v-354
q-10 46 -38.5 71t-53.5 6q-81 -88 -170 -90q-158 3 -261 105.5t-103 249.5zM385 -61l-134 -127h-5l84 127h55z" />
    <glyph glyph-name="uni0123" unicode="&#x123;" horiz-adv-x="622" 
d="M247 610l259 127l-184 -127h-75zM305 -276q-214 0 -255.5 60t108.5 177q-49 12 -73 33l184 101q-83 18 -139.5 73.5t-61.5 123.5q-3 52 34 101.5t100 79.5t129 29q83 -2 331 -2l-40 -57h-137q74 -54 84 -133q9 -65 -40 -120t-118.5 -80t-125.5 -16l-126 -70
q23 -8 82.5 -11t121 -6.5t122.5 -12t99.5 -32.5t38.5 -63q0 -47 -33 -82.5t-84 -54.5t-102.5 -28.5t-98.5 -9.5zM331 108q73 0 115 54t29 137q-30 189 -175 189q-73 0 -110.5 -49t-31.5 -140q10 -87 56.5 -139t116.5 -52zM549 -190q34 20 48.5 34t14.5 32q0 30 -67 45.5
t-155 18.5q-147 4 -219 18q-88 -55 -44 -112q40 -50 151 -71q138 -25 246 23q13 5 25 12z" />
    <glyph glyph-name="Imacron" unicode="&#x12a;" horiz-adv-x="194" 
d="M222 766v-16h-249v16h249zM54 103q10 278 0 487l-5 103h96l-6 -103q-6 -247 0 -487l6 -103h-96z" />
    <glyph glyph-name="imacron" unicode="&#x12b;" horiz-adv-x="254" 
d="M78 648q0 22 15 37.5t37 15.5t37.5 -15.5t15.5 -37.5t-15.5 -37t-37.5 -15t-37 15t-15 37zM169 60l4 -60h-90l4 60v440h82v-440z" />
    <glyph glyph-name="Iogonek" unicode="&#x12e;" horiz-adv-x="194" 
d="M54 103q10 278 0 487l-5 103h94l-6 -103q-6 -247 0 -487l6 -103h43q-61 0 -80 -50q-17 -42 7 -75q19 -24 50 -25q17 0 54 21l2 -2q-46 -31 -91 -31q-67 0 -84 43q-15 40 25 79q28 27 73 40h-93z" />
    <glyph glyph-name="iogonek" unicode="&#x12f;" horiz-adv-x="254" 
d="M130 596q-22 0 -37 15t-15 37t15 37.5t37 15.5t37.5 -15.5t15.5 -37.5t-15.5 -37t-37.5 -15zM232 -131q-46 -31 -91 -31q-52 0 -73 33t2 72.5t82 56.5h-69l4 60v440h82v-440l4 -60h-5v-4q-38 -12 -51 -48t4.5 -67t54.5 -31q17 0 54 21z" />
    <glyph glyph-name="dotlessi" unicode="&#x131;" horiz-adv-x="239" 
d="M164 60l4 -60h-90l4 60v440h82v-440z" />
    <glyph glyph-name="uni0136" unicode="&#x136;" horiz-adv-x="764" 
d="M83 0q3 103 3 218.5t-1.5 256.5t-1.5 218h94v-278l474 278h34l-496 -293l443 -400h-119l-336 312v-312h-94zM405 -61l-134 -127h-5l84 127h55z" />
    <glyph glyph-name="uni0137" unicode="&#x137;" horiz-adv-x="630" 
d="M105 60v676l82 69v-521l59 56q10 8 42 39.5t59 55t71.5 44.5t87.5 21q47 2 77 -4l-35 -50q-4 -5 -20.5 -8.5t-31.5 -3.5l-14 -1q-45 -2 -82 -13t-54.5 -21t-46.5 -31.5t-39 -28.5q42 24 82 9.5t69 -48.5t61 -83t58 -93.5t60.5 -80t68.5 -43.5q-87 0 -143.5 36t-113.5 141
q-51 93 -108.5 120.5t-106.5 -23.5v-214l4 -60h-90zM375 -61l-134 -127h-5l84 127h55z" />
    <glyph glyph-name="Lacute" unicode="&#x139;" horiz-adv-x="532" 
d="M227 750l259 127l-184 -127h-75zM76 693h90v-681q70 -3 129.5 13.5t110.5 52t90 74t86 96.5l-126 -248h-380v693z" />
    <glyph glyph-name="lacute" unicode="&#x13a;" horiz-adv-x="190" 
d="M134 806q-8 -327 0 -654q3 -140 60 -152q-80 0 -109.5 16t-32.5 72v645z" />
    <glyph glyph-name="uni013B" unicode="&#x13b;" horiz-adv-x="472" 
d="M76 693h90v-681q70 -3 129.5 13.5t110.5 52t90 74t86 96.5l-126 -248h-380v693zM275 -61l-134 -127h-5l84 127h55z" />
    <glyph glyph-name="uni013C" unicode="&#x13c;" horiz-adv-x="211" 
d="M134 806q-8 -327 0 -654q3 -140 60 -152q-80 0 -109.5 16t-32.5 72v645zM205 -61l-134 -127h-5l84 127h55z" />
    <glyph glyph-name="Lcaron" unicode="&#x13d;" horiz-adv-x="472" 
d="M76 693h90v-681q70 -3 129.5 13.5t110.5 52t90 74t86 96.5l-126 -248h-380v693zM425 693l-134 -127h-5l84 127h55z" />
    <glyph glyph-name="lcaron" unicode="&#x13e;" horiz-adv-x="298" 
d="M134 806q-8 -327 0 -654q3 -140 60 -152q-80 0 -109.5 16t-32.5 72v645zM303 693l-134 -127h-5l84 127h55z" />
    <glyph glyph-name="Lslash" unicode="&#x141;" horiz-adv-x="472" 
d="M166 12q70 -3 129.5 13.5t110.5 52t90 74t86 96.5l-126 -248h-380v339l-78 -59v15l78 59v339h90v-270l128 97v-15l-128 -97v-396z" />
    <glyph glyph-name="lslash" unicode="&#x142;" horiz-adv-x="211" 
d="M234 503l-104 -103q2 -164 4 -248q3 -140 60 -152q-80 0 -109.5 16t-32.5 72v234l-44 -44v17l44 44v394l82 73q-4 -173 -4 -389l104 103v-17z" />
    <glyph glyph-name="Nacute" unicode="&#x143;" horiz-adv-x="776" 
d="M357 750l259 127l-184 -127h-75zM739 -14q-37 50 -118 130.5t-108 113.5l-371 360v-590h-16v597q-8 17 -24 33t-38 34t-32 28v1h150l542 -533l5 533h19z" />
    <glyph glyph-name="nacute" unicode="&#x144;" horiz-adv-x="673" 
d="M247 610l259 127l-184 -127h-75zM182 0l2 390q48 53 105 76.5t104 15.5t79 -48.5t32 -106.5v-327h81v345q-1 57 -29 97.5t-73.5 56t-97.5 12.5t-106.5 -31t-94.5 -76l1 96h-84v-500h81z" />
    <glyph glyph-name="uni0145" unicode="&#x145;" horiz-adv-x="717" 
d="M739 -14q-37 50 -118 130.5t-108 113.5l-371 360v-590h-16v597q-8 17 -24 33t-38 34t-32 28v1h150l542 -533l5 533h19zM443 -61l-134 -127h-5l84 127h55z" />
    <glyph glyph-name="uni0146" unicode="&#x146;" horiz-adv-x="633" 
d="M182 0l2 390q48 53 105 76.5t104 15.5t79 -48.5t32 -106.5v-327h81v345q-1 57 -29 97.5t-73.5 56t-97.5 12.5t-106.5 -31t-94.5 -76l1 96h-84v-500h81zM365 -61l-134 -127h-5l84 127h55z" />
    <glyph glyph-name="Ncaron" unicode="&#x147;" horiz-adv-x="717" 
d="M396 740l-178 137l178 -94l180 94zM739 -14q-37 50 -118 130.5t-108 113.5l-371 360v-590h-16v597q-8 17 -24 33t-38 34t-32 28v1h150l542 -533l5 533h19z" />
    <glyph glyph-name="ncaron" unicode="&#x148;" horiz-adv-x="633" 
d="M306 588l-178 137l178 -94l180 94zM182 0l2 390q48 53 105 76.5t104 15.5t79 -48.5t32 -106.5v-327h81v345q-1 57 -29 97.5t-73.5 56t-97.5 12.5t-106.5 -31t-94.5 -76l1 96h-84v-500h81z" />
    <glyph glyph-name="Eng" unicode="&#x14a;" horiz-adv-x="800" 
d="M537 -155q67 0 114 15t68.5 38.5t27 51.5t-5 55t-32.5 49q-54 58 -160 156l-404 370v-456q0 -42 10.5 -68.5t22 -34.5t28 -13.5t19.5 -7.5h-144q18 6 27.5 18.5t16 56t6.5 123.5v391q-8 27 -23.5 44.5t-38.5 33.5t-32 25v1h136l582 -540l-2 437q0 19 -2.5 32.5t-11 23.5
t-14.5 15.5t-25 10.5t-29 7t-39.5 6.5t-44.5 7.5h185v-708q0 -34 -10 -58.5t-35 -45t-72.5 -31t-117.5 -10.5v5z" />
    <glyph glyph-name="eng" unicode="&#x14b;" horiz-adv-x="623" 
d="M468 327q0 66 -28 107.5t-69.5 51t-93 -12.5t-96.5 -75l-2 -398h-79v500h82l-1 -94q48 59 112.5 86t119.5 19.5t93.5 -51.5t38.5 -115v-345q0 -47 -16 -79.5t-48.5 -50t-73 -25t-95.5 -7.5v6q75 5 115 40.5t41 115.5v327z" />
    <glyph glyph-name="Omacron" unicode="&#x14c;" horiz-adv-x="786" 
d="M558 766v-16h-289v16h289zM779 377q16 -149 -80.5 -261.5t-247.5 -124.5q-152 -11 -269.5 85t-133.5 245q-15 148 82 261t248 125q151 11 268.5 -85.5t132.5 -244.5zM713 377q14 133 -70 223.5t-190 81.5q-117 -9 -218 -111.5t-116 -238.5q-15 -135 62 -227.5t181 -83.5
q121 9 228 114.5t123 241.5z" />
    <glyph glyph-name="omacron" unicode="&#x14d;" horiz-adv-x="568" 
d="M428 626v-16h-289v16h289zM309 510q107 0 188.5 -80t80.5 -186t-86 -182.5t-193 -76.5q-107 0 -189 76.5t-80 182.5q1 105 86.5 185.5t192.5 80.5zM319 5q77 0 122.5 60.5t44.5 178.5q-3 123 -61.5 186.5t-138.5 63.5q-78 0 -127 -66.5t-40 -183.5q8 -110 66 -174.5
t134 -64.5z" />
    <glyph glyph-name="Ohungarumlaut" unicode="&#x150;" horiz-adv-x="786" 
d="M403 877l-134 -127h-5l84 127h55zM613 877l-134 -127h-5l84 127h55zM779 377q16 -149 -80.5 -261.5t-247.5 -124.5q-152 -11 -269.5 85t-133.5 245q-15 148 82 261t248 125q151 11 268.5 -85.5t132.5 -244.5zM713 377q14 133 -70 223.5t-190 81.5q-117 -9 -218 -111.5
t-116 -238.5q-15 -135 62 -227.5t181 -83.5q121 9 228 114.5t123 241.5z" />
    <glyph glyph-name="ohungarumlaut" unicode="&#x151;" horiz-adv-x="568" 
d="M299 692l-134 -127h-5l84 127h55zM509 692l-134 -127h-5l84 127h55zM309 510q107 0 188.5 -80t80.5 -186t-86 -182.5t-193 -76.5q-107 0 -189 76.5t-80 182.5q1 105 86.5 185.5t192.5 80.5zM319 5q77 0 122.5 60.5t44.5 178.5q-3 123 -61.5 186.5t-138.5 63.5
q-78 0 -127 -66.5t-40 -183.5q8 -110 66 -174.5t134 -64.5z" />
    <glyph glyph-name="OE" unicode="&#x152;" horiz-adv-x="1324" 
d="M757 12q70 -3 131 13.5t113 51.5t93.5 74.5t87.5 96.5l-126 -248h-389v121q-43 -56 -105 -90t-134 -40q-144 -11 -255 85t-126 245q-14 148 77.5 261t234.5 125q91 7 172.5 -31.5t135.5 -111.5v129h433l137 -270q-13 14 -37.5 47t-44 57.5t-57 55.5t-80 50.5t-110.5 33
t-151 13.5v-327h304v-15h-304v-326zM664 375q14 137 -57 228t-181 82q-109 -9 -193.5 -111t-99.5 -241q-15 -140 47 -232t171 -84q112 9 204.5 114t108.5 244z" />
    <glyph glyph-name="oe" unicode="&#x153;" horiz-adv-x="1059" 
d="M1040 154q-2 -7 -7.5 -19.5t-31 -42.5t-62.5 -52q-84 -54 -184 -54q-73 0 -129 36t-87 95q-38 -60 -103 -96t-137 -36q-107 0 -189 76.5t-80 182.5q1 105 86.5 185.5t192.5 80.5q73 0 138.5 -41t100.5 -106q71 116 192 143q75 17 165 -4q25 -6 44 -16.5t27.5 -20
t13.5 -21t6 -16.5t1 -10q0 -69 -115 -72h-290q-10 -50 1.5 -105.5t40.5 -103.5t82 -79.5t120 -31.5q49 0 107 33.5t91 94.5h6zM319 5q77 0 122.5 60.5t44.5 178.5q-3 123 -61.5 186.5t-138.5 63.5q-78 0 -127 -66.5t-40 -183.5q8 -110 66 -174.5t134 -64.5zM630 426
q-25 -28 -35 -66l219 7l52 3q32 2 40 20t-4.5 39t-35.5 35q-57 33 -128.5 19t-107.5 -57z" />
    <glyph glyph-name="Racute" unicode="&#x154;" horiz-adv-x="765" 
d="M257 750l259 127l-184 -127h-75zM627 0q-14 29 -58 52t-94.5 43t-100 48t-82.5 80t-33 126v19l121 1q31 0 53.5 2.5t46.5 11.5t39.5 24.5t25 42.5t9.5 64q0 59 -26.5 97.5t-64 52.5t-84.5 14l-214 -1v-677h-91v693h327q105 0 179 -51t74 -125q0 -63 -76 -115.5
t-159 -53.5h-152q0 -70 65 -109.5t189 -64.5q156 -40 168 -174h-62z" />
    <glyph glyph-name="racute" unicode="&#x155;" horiz-adv-x="389" 
d="M120 610l259 127l-184 -127h-75zM100 60l1 316v124h82v-150q3 41 62 95.5t140 54.5q50 2 82 -4l-38 -50q-4 -5 -21.5 -8.5t-33.5 -3.5l-15 -1q-53 -2 -90 -14t-54 -30t-24 -32t-8 -28v-269l3 -60h-89z" />
    <glyph glyph-name="uni0156" unicode="&#x156;" horiz-adv-x="719" 
d="M627 0q-14 29 -58 52t-94.5 43t-100 48t-82.5 80t-33 126v19l121 1q31 0 53.5 2.5t46.5 11.5t39.5 24.5t25 42.5t9.5 64q0 59 -26.5 97.5t-64 52.5t-84.5 14l-214 -1v-677h-91v693h327q105 0 179 -51t74 -125q0 -63 -76 -115.5t-159 -53.5h-152q0 -70 65 -109.5
t189 -64.5q156 -40 168 -174h-62zM385 -61l-134 -127h-5l84 127h55z" />
    <glyph glyph-name="uni0157" unicode="&#x157;" horiz-adv-x="389" 
d="M100 60l1 316v124h82v-150q3 41 62 95.5t140 54.5q50 2 82 -4l-38 -50q-4 -5 -21.5 -8.5t-33.5 -3.5l-15 -1q-53 -2 -90 -14t-54 -30t-24 -32t-8 -28v-269l3 -60h-89zM194 -61l-134 -127h-5l84 127h55z" />
    <glyph glyph-name="Rcaron" unicode="&#x158;" horiz-adv-x="719" 
d="M278 740l-178 137l178 -94l180 94zM627 0q-14 29 -58 52t-94.5 43t-100 48t-82.5 80t-33 126v19l121 1q31 0 53.5 2.5t46.5 11.5t39.5 24.5t25 42.5t9.5 64q0 59 -26.5 97.5t-64 52.5t-84.5 14l-214 -1v-677h-91v693h327q105 0 179 -51t74 -125q0 -63 -76 -115.5
t-159 -53.5h-152q0 -70 65 -109.5t189 -64.5q156 -40 168 -174h-62z" />
    <glyph glyph-name="rcaron" unicode="&#x159;" horiz-adv-x="389" 
d="M212 588l-178 137l178 -94l180 94zM100 60l1 316v124h82v-150q3 41 62 95.5t140 54.5q50 2 82 -4l-38 -50q-4 -5 -21.5 -8.5t-33.5 -3.5l-15 -1q-53 -2 -90 -14t-54 -30t-24 -32t-8 -28v-269l3 -60h-89z" />
    <glyph glyph-name="Sacute" unicode="&#x15a;" horiz-adv-x="637" 
d="M257 750l259 127l-184 -127h-75zM355 -14q-28 0 -54 1t-44.5 2t-40.5 5t-32.5 5.5t-31 8t-26.5 8t-28 9.5t-26 9l-32 268h6q7 -70 28 -123.5t50.5 -87t68.5 -55t78.5 -29.5t83.5 -7q50 1 86.5 13.5t54.5 33t26 40t8 39.5q0 37 -26 66.5t-68 50.5t-92.5 40t-101.5 40
t-93.5 46t-69 63t-27.5 86q0 19 5 40t22 47t43.5 46.5t74 35.5t109.5 17q60 2 125.5 -2.5t101.5 -9.5l36 -6l28 -233h-5q-6 67 -32.5 106t-76.5 71q-71 46 -162 56t-155.5 -21.5t-62.5 -92.5q2 -55 53 -92.5t122 -61.5t142 -50t121.5 -74t51.5 -118q1 -95 -66 -141.5
t-172 -48.5z" />
    <glyph glyph-name="sacute" unicode="&#x15b;" horiz-adv-x="420" 
d="M118 610l259 127l-184 -127h-75zM33 207q0 -123 98 -179q75 -43 158 -25q73 16 90 69q4 13 4 27q-1 31 -38.5 54.5t-90.5 41.5t-106.5 37t-92.5 50.5t-42 73.5q-10 112 110.5 146.5t286.5 -25.5v-150h-6q-5 34 -19.5 64.5t-41.5 57.5t-73 40.5t-106 7.5
q-20 -3 -34.5 -6.5t-34 -12t-29 -24.5t-7.5 -39q3 -36 41.5 -60.5t92.5 -40t108 -32.5t93 -48t42 -76q3 -38 -13.5 -71.5t-33.5 -49.5q-28 -25 -65.5 -38t-92.5 -12t-92.5 4.5t-109.5 13.5l-2 204z" />
    <glyph glyph-name="Scedilla" unicode="&#x15e;" horiz-adv-x="637" 
d="M103 572q2 -55 53 -92.5t122 -61.5t142 -50t121.5 -74t51.5 -118q1 -95 -66 -141.5t-172 -48.5h-18l-30 -42q30 8 63.5 7.5t59.5 -20.5t26 -54q0 -42 -38.5 -62.5t-85.5 -11.5q-36 7 -51 11v37q2 -1 12 -11.5t21.5 -19t23.5 -12.5q33 -9 57.5 9.5t24.5 59.5
q0 48 -40.5 60.5t-93.5 -16.5l3 8l20 57q-29 1 -56 3.5t-43.5 5t-41.5 9t-31.5 8.5t-34 11.5t-30.5 10.5l-32 268h6q7 -70 28 -123.5t50.5 -87t68.5 -55t78.5 -29.5t83.5 -7q50 1 86.5 13.5t54.5 33t26 40t8 39.5q0 37 -26 66.5t-68 50.5t-92.5 40t-101.5 40t-93.5 46
t-69 63t-27.5 86q0 19 5 40t22 47t43.5 46.5t74 35.5t109.5 17q60 2 125.5 -2.5t101.5 -9.5l36 -6l28 -233h-5q-6 67 -32.5 106t-76.5 71q-71 46 -162 56t-155.5 -21.5t-62.5 -92.5z" />
    <glyph glyph-name="scedilla" unicode="&#x15f;" horiz-adv-x="442" 
d="M435 -106l2 -2q-46 -31 -91 -31q-40 0 -61.5 22.5t-17 53.5t31.5 56q-24 -9 -81.5 -6.5t-91 6t-97.5 12.5l-2 204l6 -2q0 -123 98 -179q75 -43 158 -25q73 16 90 69q4 13 4 27q-1 31 -38 54.5t-90 41.5t-106.5 37t-92.5 50.5t-43 73.5q-10 112 110.5 146.5t286.5 -25.5
v-150h-6q-5 34 -19.5 65t-41.5 58.5t-73.5 40.5t-105.5 6q-20 -3 -34.5 -6.5t-33.5 -12t-29 -24.5t-8 -39q3 -36 41.5 -60.5t92.5 -40t108 -32.5t93 -48t42 -76q3 -38 -13.5 -71.5t-33.5 -49.5q-8 -8 -17 -14q-8 -6 -12 -8q-33 -20 -40.5 -54.5t10.5 -61t51 -26.5
q17 0 54 21z" />
    <glyph glyph-name="Scaron" unicode="&#x160;" horiz-adv-x="581" 
d="M282 740l-178 137l178 -94l180 94zM355 -14q-28 0 -54 1t-44.5 2t-40.5 5t-32.5 5.5t-31 8t-26.5 8t-28 9.5t-26 9l-32 268h6q7 -70 28 -123.5t50.5 -87t68.5 -55t78.5 -29.5t83.5 -7q50 1 86.5 13.5t54.5 33t26 40t8 39.5q0 37 -26 66.5t-68 50.5t-92.5 40t-101.5 40
t-93.5 46t-69 63t-27.5 86q0 19 5 40t22 47t43.5 46.5t74 35.5t109.5 17q60 2 125.5 -2.5t101.5 -9.5l36 -6l28 -233h-5q-6 67 -32.5 106t-76.5 71q-71 46 -162 56t-155.5 -21.5t-62.5 -92.5q2 -55 53 -92.5t122 -61.5t142 -50t121.5 -74t51.5 -118q1 -95 -66 -141.5
t-172 -48.5z" />
    <glyph glyph-name="scaron" unicode="&#x161;" horiz-adv-x="420" 
d="M206 588l-178 137l178 -94l180 94zM33 207q0 -123 98 -179q75 -43 158 -25q73 16 90 69q4 13 4 27q-1 31 -38.5 54.5t-90.5 41.5t-106.5 37t-92.5 50.5t-42 73.5q-10 112 110.5 146.5t286.5 -25.5v-150h-6q-5 34 -19.5 64.5t-41.5 57.5t-73 40.5t-106 7.5
q-20 -3 -34.5 -6.5t-34 -12t-29 -24.5t-7.5 -39q3 -36 41.5 -60.5t92.5 -40t108 -32.5t93 -48t42 -76q3 -38 -13.5 -71.5t-33.5 -49.5q-28 -25 -65.5 -38t-92.5 -12t-92.5 4.5t-109.5 13.5l-2 204z" />
    <glyph glyph-name="uni0162" unicode="&#x162;" horiz-adv-x="710" 
d="M683 459l-4 -1q-28 86 -79.5 153.5t-119.5 67.5h-81v-679l-62 -53q30 8 63.5 7.5t59.5 -20.5t26 -54q0 -42 -38.5 -62.5t-85.5 -11.5q-36 7 -51 11v37q2 -1 12 -11.5t21.5 -19t23.5 -12.5q33 -9 57.5 9.5t24.5 59.5q0 46 -53.5 55.5t-106.5 -20.5l9 17l70 68h-58v679h-79
q-68 0 -119.5 -67t-79.5 -153h-4l42 234h569z" />
    <glyph glyph-name="uni0163" unicode="&#x163;" horiz-adv-x="485" 
d="M446 148q-35 -63 -83 -103t-94.5 -48.5t-87 2t-65.5 45t-25 83.5v315h-65l146 179v-121h207l-50 -58h-157l-3 -344q-1 -64 54 -78q59 -15 132 38q47 35 82 90h9z" />
    <glyph glyph-name="Tcaron" unicode="&#x164;" horiz-adv-x="721" 
d="M358 740l-178 137l178 -94l180 94zM683 459l-4 -1q-28 86 -79.5 153.5t-119.5 67.5h-81v-679h-88v679h-79q-68 0 -119.5 -67t-79.5 -153h-4l42 234h569z" />
    <glyph glyph-name="tcaron" unicode="&#x165;" horiz-adv-x="439" 
d="M363 693l-134 -127h-5l84 127h55zM446 148q-35 -63 -83 -103t-94.5 -48.5t-87 2t-65.5 45t-25 83.5v315h-65l146 179v-121h207l-50 -58h-157l-3 -344q-1 -64 54 -78q59 -15 132 38q47 35 82 90h9z" />
    <glyph glyph-name="Tbar" unicode="&#x166;" horiz-adv-x="721" 
d="M399 679v-264h230v-15h-230v-400h-88v400h-229v15h229v264h-79q-68 0 -119.5 -67t-79.5 -153h-4l42 234h569l43 -234l-4 -1q-28 86 -79.5 153.5t-119.5 67.5h-81z" />
    <glyph glyph-name="tbar" unicode="&#x167;" horiz-adv-x="439" 
d="M446 148q-35 -63 -83 -103t-94.5 -48.5t-87 2t-65.5 45t-25 83.5v214h-50v14h50v87h-65l146 179v-121h207l-50 -58h-157l-1 -87h175v-14h-175l-2 -243q-1 -64 54 -78q59 -15 132 38q47 35 82 90h9z" />
    <glyph glyph-name="Umacron" unicode="&#x16a;" horiz-adv-x="718" 
d="M22 693h101v-322q2 -183 57.5 -272t177.5 -89q136 0 227 105t91 256v322h19v-322q0 -151 -95 -265.5t-242 -114.5q-67 0 -125 20.5t-106.5 62t-76.5 113t-28 165.5v341z" />
    <glyph glyph-name="umacron" unicode="&#x16b;" horiz-adv-x="554" 
d="M382 626v-16h-289v16h289zM13 189q0 -49 22 -90.5t57 -67.5t80.5 -36.5t90.5 -3.5t89 38.5t75 84.5q3 -58 32.5 -86.5t110.5 -28.5q-60 13 -60 153v348h-81l-2 -347v-22q-43 -72 -101.5 -98t-107.5 -9.5t-83.5 66t-34.5 117.5v293h-88z" />
    <glyph glyph-name="Uring" unicode="&#x16e;" horiz-adv-x="718" 
d="M390 739q33 0 56.5 23.5t23.5 56.5t-23.5 56t-56.5 23t-56 -23t-23 -56t23 -56.5t56 -23.5zM390 877q24 0 41.5 -17t17.5 -41t-17.5 -41.5t-41.5 -17.5t-41 17.5t-17 41.5t17 41t41 17zM22 693h101v-322q2 -183 57.5 -272t177.5 -89q136 0 227 105t91 256v322h19v-322
q0 -151 -95 -265.5t-242 -114.5q-67 0 -125 20.5t-106.5 62t-76.5 113t-28 165.5v341z" />
    <glyph glyph-name="uring" unicode="&#x16f;" horiz-adv-x="554" 
d="M246 590q31 0 52.5 21.5t21.5 52.5t-21.5 52.5t-52.5 21.5t-52.5 -21.5t-21.5 -52.5t21.5 -52.5t52.5 -21.5zM246 718q22 0 38.5 -16t16.5 -38t-16.5 -38.5t-38.5 -16.5t-38 16.5t-16 38.5t16 38t38 16zM13 189q0 -49 22 -90.5t57 -67.5t80.5 -36.5t90.5 -3.5t89 38.5
t75 84.5q3 -58 32.5 -86.5t110.5 -28.5q-60 13 -60 153v348h-81l-2 -347v-22q-43 -72 -101.5 -98t-107.5 -9.5t-83.5 66t-34.5 117.5v293h-88z" />
    <glyph glyph-name="Uhungarumlaut" unicode="&#x170;" horiz-adv-x="610" 
d="M393 877l-134 -127h-5l84 127h55zM603 877l-134 -127h-5l84 127h55zM22 693h101v-322q2 -183 57.5 -272t177.5 -89q136 0 227 105t91 256v322h19v-322q0 -151 -95 -265.5t-242 -114.5q-67 0 -125 20.5t-106.5 62t-76.5 113t-28 165.5v341z" />
    <glyph glyph-name="uhungarumlaut" unicode="&#x171;" horiz-adv-x="554" 
d="M263 693l-134 -127h-5l84 127h55zM473 693l-134 -127h-5l84 127h55zM13 189q0 -49 22 -90.5t57 -67.5t80.5 -36.5t90.5 -3.5t89 38.5t75 84.5q3 -58 32.5 -86.5t110.5 -28.5q-60 13 -60 153v348h-81l-2 -347v-22q-43 -72 -101.5 -98t-107.5 -9.5t-83.5 66t-34.5 117.5
v293h-88z" />
    <glyph glyph-name="Uogonek" unicode="&#x172;" horiz-adv-x="600" 
d="M537 766v-16h-289v16h289zM22 693h101v-322q2 -183 57.5 -272t177.5 -89q136 0 227 105t91 256v322h19v-322q0 -151 -95 -265.5t-242 -114.5q-67 0 -125 20.5t-106.5 62t-76.5 113t-28 165.5v341z" />
    <glyph glyph-name="uogonek" unicode="&#x173;" horiz-adv-x="595" 
d="M101 500v-293q0 -85 43.5 -140.5t107.5 -55.5q85 0 166 117v25l2 349h79v-350q0 -149 60 -162q-42 0 -70.5 10.5t-42.5 30t-20 38.5t-8 45q-46 -70 -113 -104q-36 -19 -36 -65q0 -29 19.5 -50.5t53.5 -21.5q20 0 62 21l3 -2q-53 -31 -105 -31q-43 0 -68.5 19.5
t-25.5 47.5q0 34 36 63q-16 -3 -33 -3q-81 0 -139 56.5t-59 144.5l-1 311h89z" />
    <glyph glyph-name="Wcircumflex" unicode="&#x174;" horiz-adv-x="1039" 
d="M558 834l-178 -94l178 137l180 -137zM774 -14l-218 390l-192 -390l-395 707h111l323 -586l142 288l-166 298h111l323 -588l289 588h20z" />
    <glyph glyph-name="wcircumflex" unicode="&#x175;" horiz-adv-x="888" 
d="M427 682l-178 -94l178 137l180 -137zM869 500l-253 -500h-21l-152 285l-144 -285h-26l-263 500h104l211 -414l109 216l-106 198h103l211 -414l209 414h18z" />
    <glyph glyph-name="Ycircumflex" unicode="&#x176;" horiz-adv-x="710" 
d="M358 834l-178 -94l178 137l180 -137zM334 23l-1 289l-377 381h117l350 -360l316 360h19l-326 -372v-298l3 -23h-105z" />
    <glyph glyph-name="ycircumflex" unicode="&#x177;" horiz-adv-x="547" 
d="M304 682l-178 -94l178 137l180 -137zM547 500q-27 -57 -74 -158q-174 -373 -235.5 -451t-193.5 -72l1 108q4 -1 10.5 -3t26 -6t39 -5.5t45.5 1.5t48 11.5t44 27.5t37 47l-272 500h108l210 -395l184 395h22z" />
    <glyph glyph-name="Ydieresis" unicode="&#x178;" horiz-adv-x="710" 
d="M237 734q-21 0 -36.5 15.5t-15.5 36.5q0 20 15.5 35.5t36.5 15.5q20 0 35.5 -15.5t15.5 -35.5q0 -21 -15.5 -36.5t-35.5 -15.5zM487 734q-21 0 -36.5 15.5t-15.5 36.5q0 20 15.5 35.5t36.5 15.5q20 0 35.5 -15.5t15.5 -35.5q0 -21 -15.5 -36.5t-35.5 -15.5zM334 23
l-1 289l-377 381h117l350 -360l316 360h19l-326 -372v-298l3 -23h-105z" />
    <glyph glyph-name="Zacute" unicode="&#x179;" horiz-adv-x="722" 
d="M277 750l259 127l-184 -127h-75zM70 693h582l-10 -11l-538 -669l181 -1q70 0 128 16t107.5 51t87 73t84.5 96l-106 -248h-602l545 680l-158 1q-41 1 -77.5 -5t-63.5 -14t-58 -29t-49 -34.5t-48 -46.5t-44 -49.5t-47 -57.5z" />
    <glyph glyph-name="zacute" unicode="&#x17a;" horiz-adv-x="602" 
d="M277 610l259 127l-184 -127h-75zM136 500h470l-422 -489h143q53 0 102 28.5t86.5 78t65.5 101t50 111.5h1l-93 -330h-469l420 489h-140q-48 0 -96.5 -24.5t-85.5 -63.5t-64.5 -78t-43.5 -76h-2z" />
    <glyph glyph-name="Zdotaccent" unicode="&#x17b;" horiz-adv-x="722" 
d="M355 734q-21 0 -36.5 15.5t-15.5 36.5q0 20 15.5 35.5t36.5 15.5q20 0 35.5 -15.5t15.5 -35.5q0 -21 -15.5 -36.5t-35.5 -15.5zM70 693h582l-10 -11l-538 -669l181 -1q70 0 128 16t107.5 51t87 73t84.5 96l-106 -248h-602l545 680l-158 1q-41 1 -77.5 -5t-63.5 -14
t-58 -29t-49 -34.5t-48 -46.5t-44 -49.5t-47 -57.5z" />
    <glyph glyph-name="zdotaccent" unicode="&#x17c;" horiz-adv-x="602" 
d="M319 610q-17 0 -30 13t-13 30t13 29.5t30 12.5t29.5 -12.5t12.5 -29.5t-12.5 -30t-29.5 -13zM136 500h470l-422 -489h143q53 0 102 28.5t86.5 78t65.5 101t50 111.5h1l-93 -330h-469l420 489h-140q-48 0 -96.5 -24.5t-85.5 -63.5t-64.5 -78t-43.5 -76h-2z" />
    <glyph glyph-name="Zcaron" unicode="&#x17d;" horiz-adv-x="741" 
d="M348 740l-178 137l178 -94l180 94zM70 693h582l-10 -11l-538 -669l181 -1q70 0 128 16t107.5 51t87 73t84.5 96l-106 -248h-602l545 680l-158 1q-41 1 -77.5 -5t-63.5 -14t-58 -29t-49 -34.5t-48 -46.5t-44 -49.5t-47 -57.5z" />
    <glyph glyph-name="zcaron" unicode="&#x17e;" horiz-adv-x="600" 
d="M352 588l-178 137l178 -94l180 94zM136 500h470l-422 -489h143q53 0 102 28.5t86.5 78t65.5 101t50 111.5h1l-93 -330h-469l420 489h-140q-48 0 -96.5 -24.5t-85.5 -63.5t-64.5 -78t-43.5 -76h-2z" />
    <glyph glyph-name="circumflex" unicode="&#x2c6;" horiz-adv-x="418" 
d="M208 682l-178 -94l178 137l180 -137z" />
    <glyph glyph-name="caron" unicode="&#x2c7;" horiz-adv-x="418" 
d="M208 601l-178 137l178 -94l180 94z" />
    <glyph glyph-name="breve" unicode="&#x2d8;" horiz-adv-x="272" 
d="M223 717q-3 -31 -27.5 -55.5t-60.5 -24.5q-35 0 -59 24.5t-27 55.5h-19q4 -41 34 -69.5t71 -28.5q42 0 72.5 28.5t34.5 69.5h-19z" />
    <glyph glyph-name="dotaccent" unicode="&#x2d9;" horiz-adv-x="165" 
d="M30 648q0 22 15 37.5t37 15.5t37.5 -15.5t15.5 -37.5t-15.5 -37t-37.5 -15t-37 15t-15 37z" />
    <glyph glyph-name="ring" unicode="&#x2da;" horiz-adv-x="219" 
d="M109 589q-33 0 -56 23.5t-23 56.5t23 56t56 23t56.5 -23t23.5 -56t-23.5 -56.5t-56.5 -23.5zM109 727q-24 0 -41 -17t-17 -41t17 -41.5t41 -17.5t41.5 17.5t17.5 41.5t-17.5 41t-41.5 17z" />
    <glyph glyph-name="ogonek" unicode="&#x2db;" horiz-adv-x="229" 
d="M97 0q-28 -36 -12.5 -77.5t58.5 -41.5q17 0 54 21l2 -2q-46 -31 -91 -31q-40 0 -61 22t-17 53t30 56h37z" />
    <glyph glyph-name="tilde" unicode="&#x2dc;" horiz-adv-x="427" 
d="M30 629q4 6 10.5 15t28.5 29.5t45.5 31.5t60.5 9t74 -26q3 -2 8.5 -5t22 -8t33 -4.5t40 10.5t44.5 32q-3 -5 -8 -13t-22 -25t-36 -27t-48 -9t-59 20t-61 23t-54 -4t-41.5 -19t-27.5 -21z" />
    <glyph glyph-name="hungarumlaut" unicode="&#x2dd;" horiz-adv-x="409" 
d="M169 693l-134 -127h-5l84 127h55zM379 693l-134 -127h-5l84 127h55z" />
    <glyph glyph-name="gravecomb" unicode="&#x300;" 
d="M-289 737l259 -127h-75z" />
    <glyph glyph-name="acutecomb" unicode="&#x301;" 
d="M-289 610l259 127l-184 -127h-75z" />
    <glyph glyph-name="uni0302" unicode="&#x302;" 
d="M-210 682l-178 -94l178 137l180 -137z" />
    <glyph glyph-name="tildecomb" unicode="&#x303;" 
d="M-397 629q4 6 10.5 15t28.5 29.5t45.5 31.5t60.5 9t74 -26q3 -2 8.5 -5t22 -8t33 -4.5t40 10.5t44.5 32q-3 -5 -8 -13t-22 -25t-36 -27t-48 -9t-59 20t-61 23t-54 -4t-41.5 -19t-28.5 -21z" />
    <glyph glyph-name="uni0304" unicode="&#x304;" 
d="M-30 610h-289v16h289v-16z" />
    <glyph glyph-name="uni0306" unicode="&#x306;" 
d="M-49 717q-3 -31 -27.5 -55.5t-60.5 -24.5q-35 0 -59 24.5t-27 55.5h-19q4 -41 34 -69.5t71 -28.5q42 0 72.5 28.5t34.5 69.5h-19z" />
    <glyph glyph-name="uni0308" unicode="&#x308;" 
d="M-355 648q0 22 15 37.5t37 15.5t37.5 -15.5t15.5 -37.5t-15.5 -37t-37.5 -15t-37 15t-15 37zM-135 648q0 22 15 37.5t37 15.5t37.5 -15.5t15.5 -37.5t-15.5 -37t-37.5 -15t-37 15t-15 37z" />
    <glyph glyph-name="uni030A" unicode="&#x30a;" 
d="M-110 589q-33 0 -56 23.5t-23 56.5t23 56t56 23t56.5 -23t23.5 -56t-23.5 -56.5t-56.5 -23.5zM-110 727q-24 0 -41 -17t-17 -41t17 -41.5t41 -17.5t41.5 17.5t17.5 41.5t-17.5 41t-41.5 17z" />
    <glyph glyph-name="uni030B" unicode="&#x30b;" 
d="M-240 693l-134 -127h-5l84 127h55zM-30 693l-134 -127h-5l84 127h55z" />
    <glyph glyph-name="uni030C" unicode="&#x30c;" 
d="M-210 601l-178 137l178 -94l180 94z" />
    <glyph glyph-name="uni0312" unicode="&#x312;" 
d="M-140 648q-1 15 1.5 35.5t23 61t59.5 70.5h5q-2 -2 -5.5 -4.5t-12.5 -11.5t-16 -17.5t-12 -20t-4.5 -22t9.5 -21t27 -18.5q35 -14 35 -51q0 -21 -16.5 -37.5t-39.5 -16.5q-21 0 -37.5 16t-16.5 37z" />
    <glyph glyph-name="uni0326" unicode="&#x326;" 
d="M-30 53q1 -15 -1.5 -35.5t-23 -61t-59.5 -70.5h-5q4 3 10.5 8.5t19.5 21t18.5 29t-2 29.5t-32.5 26q-35 16 -35 52q0 21 16.5 37.5t39.5 16.5q21 0 37.5 -16.5t16.5 -36.5z" />
    <glyph glyph-name="uni0327" unicode="&#x327;" 
d="M-155 0l-24 -46q30 8 63.5 7.5t59.5 -20.5t26 -54q0 -42 -38.5 -62.5t-85.5 -11.5q-36 7 -51 11v37q2 -1 12 -11.5t21.5 -19t23.5 -12.5q33 -9 57.5 9.5t24.5 59.5q0 48 -40.5 60.5t-93.5 -16.5l3 8l32 61h10z" />
    <glyph glyph-name="uni0328" unicode="&#x328;" 
d="M-132 0q-28 -36 -12.5 -77.5t58.5 -41.5q17 0 54 21l2 -2q-46 -31 -91 -31q-40 0 -61 22t-17 53t30 56h37z" />
    <glyph glyph-name="uni0335" unicode="&#x335;" 
d="M-535 260h505v-21h-505v21z" />
    <glyph glyph-name="uni0337" unicode="&#x337;" 
d="M-50 704l20 -15l-512 -693l-20 15z" />
    <glyph glyph-name="uni0338" unicode="&#x338;" 
d="M-50 750l20 -15l-593 -803l-20 15z" />
    <glyph glyph-name="Wgrave" unicode="&#x1e80;" horiz-adv-x="1039" 
d="M401 750l-184 127l259 -127h-75zM774 -14l-218 390l-192 -390l-395 707h111l323 -586l142 288l-166 298h111l323 -588l289 588h20z" />
    <glyph glyph-name="wgrave" unicode="&#x1e81;" horiz-adv-x="888" 
d="M367 610l-184 127l259 -127h-75zM869 500l-253 -500h-21l-152 285l-144 -285h-26l-263 500h104l211 -414l109 216l-106 198h103l211 -414l209 414h18z" />
    <glyph glyph-name="Wacute" unicode="&#x1e82;" horiz-adv-x="1039" 
d="M502 750h-75l259 127zM774 -14l-218 390l-192 -390l-395 707h111l323 -586l142 288l-166 298h111l323 -588l289 588h20z" />
    <glyph glyph-name="wacute" unicode="&#x1e83;" horiz-adv-x="888" 
d="M441 610h-75l259 127zM869 500l-253 -500h-21l-152 285l-144 -285h-26l-263 500h104l211 -414l109 216l-106 198h103l211 -414l209 414h18z" />
    <glyph glyph-name="Wdieresis" unicode="&#x1e84;" horiz-adv-x="1039" 
d="M415 734q-21 0 -36.5 15.5t-15.5 36.5q0 20 15.5 35.5t36.5 15.5q20 0 35.5 -15.5t15.5 -35.5q0 -21 -15.5 -36.5t-35.5 -15.5zM665 734q-21 0 -36.5 15.5t-15.5 36.5q0 20 15.5 35.5t36.5 15.5q20 0 35.5 -15.5t15.5 -35.5q0 -21 -15.5 -36.5t-35.5 -15.5zM774 -14
l-218 390l-192 -390l-395 707h111l323 -586l142 288l-166 298h111l323 -588l289 588h20z" />
    <glyph glyph-name="wdieresis" unicode="&#x1e85;" horiz-adv-x="888" 
d="M323 610q-17 0 -30 13t-13 30t13 29.5t30 12.5t29.5 -12.5t12.5 -29.5t-12.5 -30t-29.5 -13zM518 610q-17 0 -30 13t-13 30t13 29.5t30 12.5t30 -12.5t13 -29.5t-13 -30t-30 -13zM869 500l-253 -500h-21l-152 285l-144 -285h-26l-263 500h104l211 -414l109 216l-106 198
h103l211 -414l209 414h18z" />
    <glyph glyph-name="Ygrave" unicode="&#x1ef2;" horiz-adv-x="710" 
d="M147 877l259 -127h-75zM334 23l-1 289l-377 381h117l350 -360l316 360h19l-326 -372v-298l3 -23h-105z" />
    <glyph glyph-name="ygrave" unicode="&#x1ef3;" horiz-adv-x="547" 
d="M94 737l259 -127h-75zM547 500q-27 -57 -74 -158q-174 -373 -235.5 -451t-193.5 -72l1 108q4 -1 10.5 -3t26 -6t39 -5.5t45.5 1.5t48 11.5t44 27.5t37 47l-272 500h108l210 -395l184 395h22z" />
    <glyph glyph-name="endash" unicode="&#x2013;" horiz-adv-x="600" 
d="M550 296h-500v14h500v-14z" />
    <glyph glyph-name="emdash" unicode="&#x2014;" horiz-adv-x="1100" 
d="M1050 296h-1000v14h1000v-14z" />
    <glyph glyph-name="quoteleft" unicode="&#x2018;" horiz-adv-x="210" 
d="M50 648q-1 15 1.5 35.5t23 61t59.5 70.5h5q-2 -2 -5.5 -4.5t-12.5 -11.5t-16 -17.5t-12 -20t-4.5 -22t9.5 -21t27 -18.5q35 -14 35 -51q0 -21 -16.5 -37.5t-39.5 -16.5q-21 0 -37.5 16t-16.5 37z" />
    <glyph glyph-name="quoteright" unicode="&#x2019;" horiz-adv-x="170" 
d="M140 650q1 -15 -1.5 -35.5t-23 -61t-59.5 -70.5h-5q2 2 5.5 4.5t12.5 11.5t16 17.5t12 20t4.5 22t-9.5 21t-27 18.5q-35 14 -35 51q0 21 16.5 37.5t39.5 16.5q21 0 37.5 -16t16.5 -37z" />
    <glyph glyph-name="quotesinglbase" unicode="&#x201a;" horiz-adv-x="600" 
d="M160 53q1 -15 -1.5 -35.5t-23 -61t-59.5 -70.5h-5q4 3 10.5 8.5t19.5 21t18.5 29t-2 29.5t-32.5 26q-35 16 -35 52q0 21 16.5 37.5t39.5 16.5q21 0 37.5 -16.5t16.5 -36.5z" />
    <glyph glyph-name="quotedblleft" unicode="&#x201c;" horiz-adv-x="363" 
d="M50 648q-1 15 1.5 35.5t23 61t59.5 70.5h5q-2 -2 -5.5 -4.5t-12.5 -11.5t-16 -17.5t-12 -20t-4.5 -22t9.5 -21t27 -18.5q35 -14 35 -51q0 -21 -16.5 -37.5t-39.5 -16.5q-21 0 -37.5 16t-16.5 37zM203 648q-1 15 1.5 35.5t23 61t59.5 70.5h5q-2 -2 -5.5 -4.5t-12.5 -11.5
t-15.5 -17.5t-12 -20t-5 -22t9.5 -21t27 -18.5q35 -13 35 -51q0 -21 -16.5 -37.5t-39.5 -16.5q-21 0 -37.5 16t-16.5 37z" />
    <glyph glyph-name="quotedblright" unicode="&#x201d;" horiz-adv-x="363" 
d="M160 752q1 -15 -1.5 -35.5t-23 -61t-59.5 -70.5h-5q2 2 5.5 4.5t12.5 11.5t15.5 17.5t12 20t4.5 22t-10 21t-27 18.5q-34 14 -34 51q0 21 16.5 37.5t39.5 16.5q21 0 37.5 -16t16.5 -37zM313 752q1 -15 -1.5 -35.5t-23 -61t-59.5 -70.5h-5q2 2 5.5 4.5t12.5 11.5
t15.5 17.5t12 20t5 22t-9.5 21t-27 18.5q-35 13 -35 51q0 21 16.5 37.5t39.5 16.5q21 0 37.5 -16t16.5 -37z" />
    <glyph glyph-name="quotedblbase" unicode="&#x201e;" horiz-adv-x="380" 
d="M106 106q21 0 37.5 -16.5t16.5 -36.5q1 -15 -1.5 -35.5t-23 -61t-59.5 -70.5h-5q4 3 10.5 8.5t19.5 21t18.5 29t-2 29.5t-32.5 26q-35 16 -35 52q0 21 16.5 37.5t39.5 16.5zM330 53q1 -15 -1.5 -35.5t-23 -61t-59.5 -70.5h-5q4 3 10.5 8.5t19.5 21t18.5 29t-2 29.5
t-32.5 26q-35 16 -35 52q0 21 16.5 37.5t39.5 16.5q21 0 37.5 -16.5t16.5 -36.5z" />
    <glyph glyph-name="bullet" unicode="&#x2022;" horiz-adv-x="591" 
d="M298 59q-103 0 -175.5 72.5t-72.5 175.5q0 96 73 169.5t175 73.5q94 0 168.5 -74.5t74.5 -168.5q0 -101 -74 -174.5t-169 -73.5z" />
    <glyph glyph-name="ellipsis" unicode="&#x2026;" horiz-adv-x="600" 
d="M92 97q20 0 35.5 -15.5t15.5 -35.5q0 -21 -15.5 -36.5t-35.5 -15.5q-21 0 -36.5 15.5t-15.5 36.5q0 20 15.5 35.5t36.5 15.5z" />
    <glyph glyph-name="perthousand" unicode="&#x2030;" horiz-adv-x="1066" 
d="M642 703l-585 -715l-9 7l585 716zM303 661q51 -43 54 -111.5t-44 -122.5q-47 -53 -116.5 -60t-120.5 37q-51 43 -53.5 112t44.5 122t116.5 60t119.5 -37zM268 476q48 54 58.5 101t-25.5 81q-41 29 -90 13.5t-102 -67.5q-50 -49 -59 -105t28 -88q40 -29 90.5 -10t99.5 75z
M990 295q51 -43 53.5 -112t-44.5 -122t-116.5 -60t-120.5 36q-50 44 -53 112.5t44 121.5q47 54 116.5 61t120.5 -37zM615 294q51 -43 53.5 -112t-44.5 -122t-116.5 -60t-120.5 36q-50 44 -53 112.5t44 121.5q47 54 116.5 61t120.5 -37zM955 109q48 55 58 101.5t-25 81.5
q-40 29 -90 13.5t-102 -67.5q-50 -49 -59 -105t28 -88q40 -29 90.5 -10t99.5 74zM580 108q48 55 58 101.5t-25 81.5q-40 29 -90 13.5t-102 -67.5q-50 -49 -59 -105t28 -88q40 -29 90.5 -10t99.5 74z" />
    <glyph glyph-name="fraction" unicode="&#x2044;" horiz-adv-x="682" 
d="M587 704l20 -15l-512 -693l-20 15z" />
    <glyph glyph-name="Euro" unicode="&#x20ac;" horiz-adv-x="692" 
d="M173 274q22 -115 85.5 -189.5t151.5 -74.5q77 0 136.5 25t123.5 84v-15q-126 -116 -260 -116q-130 1 -229 82t-124 204h-37v13h34q-4 36 -4 56q0 28 5 61h-35v13h37q20 102 93 176t174 101t204 2q23 -5 46.5 -12t38.5 -13l32.5 -13l22.5 -9l4 -174q-36 79 -87.5 131
t-105 71.5t-108.5 12t-99 -40.5t-74 -93t-35 -139h359l-4 -13h-356v-21q0 -46 8 -96h305l-5 -13h-297z" />
    <glyph glyph-name="trademark" unicode="&#x2122;" horiz-adv-x="1606" 
d="M683 459l-4 -1q-28 86 -79.5 153.5t-119.5 67.5h-81v-679h-88v679h-79q-68 0 -119.5 -67t-79.5 -153h-4l42 234h569zM1557 693v-693h-95v665l-335 -469l-350 379v-575h-16v579q0 23 -29 58.5t-55 54.5v1h129l364 -409l290 409h97z" />
    <glyph glyph-name="product" unicode="&#x220f;" horiz-adv-x="738" 
d="M688 681h-150v-681h-75v681h-183v-681h-75v681h-155v12h638v-12z" />
    <glyph glyph-name="summation" unicode="&#x2211;" horiz-adv-x="712" 
d="M302 348l-230 345h474l85 -187q-32 34 -79 65t-114 60t-158.5 44.5t-193.5 11.5l309 -339l-307 -339q51 0 98 5t84.5 13t75 22.5t64 26.5t56 32t46.5 33t41 36t33.5 33.5t29 32.5t24.5 27l-137 -270h-431z" />
    <glyph glyph-name="minus" unicode="&#x2212;" horiz-adv-x="600" 
d="M540 297h-510v18h510v-18z" />
    <glyph glyph-name="notequal" unicode="&#x2260;" horiz-adv-x="466" 
d="M303 367l-110 -122h243v-18h-259l-71 -79l-14 12l60 67h-122v18h138l110 122h-248v18h264l69 77l14 -12l-58 -65h117v-18h-133z" />
    <glyph glyph-name="B.ss01" horiz-adv-x="646" 
d="M285 693q137 0 210.5 -45t73.5 -119q0 -64 -52 -116.5t-148 -60.5q115 0 184.5 -45.5t69.5 -112.5q0 -74 -75 -134t-171 -60h-333l53 3v672l-55 18h243zM294 355q78 0 133.5 50t55.5 127q0 38 -11.5 63.5t-42.5 46.5t-92.5 30.5t-156.5 9.5v-327h114zM233 10
q125 0 206.5 52.5t79.5 122.5q-3 81 -66.5 118t-158.5 37h-114v-330h53z" />
    <glyph glyph-name="F.ss01" horiz-adv-x="599" 
d="M185 380h292v-9h-292v-325l1 -46h-87l1 19l-1 239v419l-34 16h437l53 -79q-43 23 -140 41.5t-181 21.5h-49v-297z" />
    <glyph glyph-name="M.ss01" horiz-adv-x="919" 
d="M17 693h154l276 -597l325 597h88v-602q-1 -35 5.5 -51t24 -26.5t20.5 -13.5h-186q22 15 30 23t14.5 31t5.5 62v549l-364 -679l-293 596v-458q0 -35 2 -58t7.5 -34.5t8.5 -16t11.5 -9t10.5 -6.5h-106q18 6 27.5 18.5t16 56t6.5 123.5v401q-8 25 -22 40.5t-33.5 29
t-28.5 23.5v1z" />
    <glyph glyph-name="T.ss01" horiz-adv-x="713" 
d="M636 693v-16h-239v-677h-81v677h-239v16h559z" />
    <glyph glyph-name="U.ss01" horiz-adv-x="722" 
d="M358 -9q-147 0 -249.5 104t-105.5 263q2 89 90 170q19 25 -6 50.5t-71 35.5h354l-10 -374h-5v289l-250 -1q-90 -86 -91 -170q4 -121 102 -197t242 -76q96 0 171.5 37t117 95t55 129t-4.5 138.5t-71.5 125t-136.5 86.5l174 -5q2 -5 12.5 -33.5t19.5 -58.5t15 -61
q13 -64 9 -130t-16.5 -126.5t-42.5 -113.5t-70.5 -92.5t-100.5 -62t-131 -22.5z" />
    <glyph glyph-name="W.ss01" horiz-adv-x="952" 
d="M671 0h-35l-157 335l-164 -335h-37l-288 693h95l252 -611l136 268l-162 343h94l120 -254l127 254h12l-133 -269l161 -342l264 611h12z" />
    <glyph glyph-name="S_S" horiz-adv-x="1308" 
d="M47 302q7 -70 28 -123.5t50.5 -87t68.5 -55t78.5 -29.5t83.5 -7q50 1 86.5 13.5t54.5 33t26 40t8 39.5q0 37 -26 66.5t-68 50.5t-92.5 40t-101.5 40t-93.5 46t-69 63t-27.5 86q0 19 5 40t22 47t43.5 46.5t74 35.5t109.5 17q95 3 163.5 -19.5t106 -63t61.5 -93.5t37 -112
t25 -118.5t32.5 -113t53.5 -95t93.5 -66t146.5 -23.5q95 1 135 40t40 86q0 37 -26 66.5t-68 50.5t-92.5 40t-101.5 40t-93.5 46t-69 63t-27.5 86q0 19 5 40t22 47t43.5 46.5t74 35.5t109.5 17q60 2 125.5 -2.5t101.5 -9.5l36 -6l28 -233h-5q-6 67 -32.5 106t-76.5 71
q-72 46 -163 55.5t-155 -21.5t-62 -92q2 -55 52.5 -92.5t122 -61.5t142.5 -50t121.5 -74t51.5 -118q1 -95 -66 -141.5t-172 -48.5q-83 -1 -141.5 6t-101.5 32t-69 51t-47 82.5t-32 106t-28 142.5q-10 74 -44.5 134.5t-78.5 89.5q-71 46 -162 56t-155.5 -21.5t-62.5 -92.5
q2 -55 52.5 -92.5t122 -61.5t142.5 -50t121.5 -74t51.5 -118q1 -95 -66 -141.5t-172 -48.5q-28 0 -54 1t-44.5 2t-40.5 5t-32.5 5.5t-31 8t-26.5 8t-28 9.5t-26 9l-32 268h6z" />
    <glyph glyph-name="f_b" horiz-adv-x="974" 
d="M83 500q0 143 133 217q95 53 201 47q80 -3 92 -38q2 -4 2 -9l-1 -177v-91q50 38 105 55t103.5 12.5t93 -22.5t76 -51t50 -72.5t17 -88.5t-24.5 -97q-4 -8 -12.5 -21.5t-36.5 -48t-58.5 -60.5t-76.5 -47.5t-93 -21.5q-6 0 -16.5 0.5t-37 6t-47 14.5t-37 28.5t-16.5 46.5
q0 25 -37 -37l-33 -59v668q-1 21 -14 34t-39.5 17.5t-45 6t-52 0t-38.5 -1.5q-16 0 -29 -7.5t-21 -19t-13.5 -28t-8 -32t-3.5 -33.5t-1 -30t0.5 -24t0.5 -13l1 -24v1h155l-50 -59h-104v-393l7 -48h-98l7 40v401h-50zM513 91q0 -46 39.5 -67.5t100.5 -21.5q122 0 176 107
q47 92 23 207q-24 111 -98 158q-104 63 -244 -41z" />
    <glyph glyph-name="f_h" horiz-adv-x="963" 
d="M83 500q0 143 133 217q95 53 201 47q80 -3 92 -38q2 -4 2 -9v-313q50 60 120.5 87.5t132 20t105 -51.5t43.5 -115v-345h-80v327q0 88 -53 129.5t-129 23t-139 -90.5v-389h-82v651q0 16 -7 28t-20.5 18t-28.5 10t-35.5 4.5t-35.5 0.5t-34.5 -1t-27.5 -1q-16 0 -29 -7.5
t-21 -19t-13.5 -28t-8 -32t-3.5 -33.5t-1 -30t0.5 -24t0.5 -13l1 -24v1h155l-50 -59h-104v-393l7 -48h-98l7 40v401h-50z" />
    <glyph glyph-name="f_j" horiz-adv-x="600" 
d="M83 500q0 147 142 223q97 52 205 48q73 -2 80 -30q1 -2 1 -4q0 -17 -17.5 -25.5t-50 -10t-63.5 0t-74.5 5t-65.5 3.5q-16 0 -29 -7t-21 -18.5t-13.5 -28t-8 -32t-3.5 -34t-1 -30.5t0.5 -24t0.5 -13l1 -24v1h165l-50 -59h-114v-393l7 -48h-98l7 40v401h-50zM483 148
q0 -167 -29.5 -238.5t-83.5 -95.5q-28 -13 -44.5 -20t-51 -20.5t-56 -18.5t-45.5 -8t-36 4.5t-12 24.5q0 23 10.5 34.5t32 12t44 -3t56 -8t58.5 -4.5q22 -1 37 16.5t23 53t11.5 78.5t3.5 101l-1 391l-1 53h84v-352z" />
    <glyph glyph-name="f_k" horiz-adv-x="1028" 
d="M83 500q0 143 133 217q95 53 201 47q80 -3 92 -38q2 -4 2 -9v-433l59 56q10 8 42 39.5t59 55t71.5 44.5t87.5 21q47 2 77 -4l-35 -50q-4 -5 -20.5 -8.5t-31.5 -3.5l-14 -1q-45 -2 -82 -13t-54.5 -21t-46.5 -31.5t-39 -28.5q42 24 82 9.5t69 -48.5t61 -83t58 -93.5
t60.5 -80t68.5 -43.5q-87 0 -143.5 36t-113.5 141q-51 93 -108.5 120.5t-106.5 -23.5v-214l4 -60h-90l4 60v591q0 16 -7 28t-20.5 18t-28.5 10t-35.5 4.5t-35.5 0.5t-34.5 -1t-27.5 -1q-16 0 -29 -7.5t-21 -19t-13.5 -28t-8 -32t-3.5 -33.5t-1 -30t0.5 -24t0.5 -13l1 -24v1
h155l-50 -59h-104v-393l7 -48h-98l7 40v401h-50z" />
    </font>
</defs>
</svg>
