<?xml version="1.0" standalone="no"?><!-- Generator: Gravit.io --><svg xmlns="http://www.w3.org/2000/svg" xmlns:xlink="http://www.w3.org/1999/xlink" style="isolation:isolate" viewBox="508.209 230 157.046 168" width="157.046" height="168"><path d=" M 560.508 269.619 Q 553.702 275.682 541.161 287.849 L 541.161 287.849 L 541.161 287.849 Q 539.955 284.891 536.502 274.597 L 536.502 274.597 L 536.502 274.597 Q 533.049 264.303 531.624 264.303 L 531.624 264.303 L 531.624 264.303 Q 528.116 264.303 528.116 268.8 L 528.116 268.8 L 528.116 268.8 L 528.883 274.834 Q 528.883 271.758 529.98 271.758 L 529.98 271.758 L 530.089 271.758 L 530.089 271.758 Q 534.364 282.643 536.995 291.162 L 536.995 291.162 L 536.995 291.162 Q 533.049 294.12 523.293 307.135 L 523.293 307.135 L 523.293 307.135 Q 513.536 320.15 512.111 324.292 L 512.111 324.292 L 512.111 324.292 Q 511.454 326.066 511.454 327.841 L 511.454 327.841 L 511.454 327.841 Q 511.454 329.616 511.728 329.616 L 511.728 329.616 L 511.728 329.616 Q 512.002 329.616 512.879 328.196 L 512.879 328.196 L 512.879 328.196 Q 523.402 310.448 538.859 295.895 L 538.859 295.895 L 538.859 295.895 Q 543.024 307.49 545.765 313.288 L 545.765 313.288 L 545.765 313.288 Q 549.383 321.097 553.439 321.097 L 553.439 321.097 L 553.439 321.097 Q 557.714 321.097 560.399 317.725 L 560.399 317.725 L 560.399 317.725 Q 563.085 314.353 563.085 308.91 L 563.085 308.91 L 563.085 308.91 Q 563.085 307.727 562.647 306.425 L 562.647 306.425 L 562.647 306.425 Q 560.408 312.197 558.974 315.891 Q 557.541 319.585 558.974 315.891 L 558.974 315.891 L 557.111 319.026 Q 556.727 319.204 555.905 319.204 L 555.905 319.204 L 555.905 319.204 Q 555.083 319.204 553.658 317.547 L 553.658 317.547 L 553.658 317.547 Q 549.821 313.17 546.971 305.242 L 546.971 305.242 L 542.476 292.345 L 542.476 292.345 C 546.229 288.826 558.283 277.921 565.383 271.442 L 565.383 271.442 Q 576.297 260.873 589.647 250.908 L 589.647 250.908 L 589.647 250.908 Q 611.29 235.79 625.557 233.181 L 625.557 233.181 L 625.557 233.181 Q 643.39 229.92 645.505 243.394 L 645.505 243.394 L 645.505 243.394 Q 647.867 258.443 633.891 285.75 L 633.891 285.75 L 633.891 285.75 Q 619.915 313.057 600.421 333.362 L 600.421 333.362 L 600.421 333.362 Q 589.096 345.153 579.693 346.872 L 579.693 346.872 L 579.693 346.872 Q 573.208 348.058 572.082 340.884 L 572.082 340.884 L 572.082 340.884 Q 568.979 321.11 631.27 269.578 L 631.27 269.578 L 631.27 269.578 Q 633.509 267.909 633.344 266.859 L 633.344 266.859 L 633.344 266.859 Q 633.289 266.509 633.127 266.539 L 633.127 266.539 L 633.127 266.539 Q 632.965 266.568 632.587 266.817 L 632.587 266.817 L 632.587 266.817 Q 632.209 267.066 631.885 267.126 L 631.885 267.126 L 631.885 267.126 Q 610.614 279.296 591.603 298.433 L 591.603 298.433 L 591.603 298.433 Q 565.769 324.037 568.461 341.186 L 568.461 341.186 L 568.461 341.186 Q 569.147 345.561 573.288 347.504 L 573.288 347.504 L 573.288 347.504 Q 577.429 349.447 582.941 348.439 L 582.941 348.439 L 582.941 348.439 Q 592.83 346.63 606.102 335.023 L 606.102 335.023 L 606.102 335.023 Q 619.373 323.416 630.473 308.066 L 630.473 308.066 L 630.473 308.066 Q 641.572 292.716 648.531 275.423 L 648.531 275.423 L 648.531 275.423 Q 655.489 258.129 653.594 246.055 L 653.594 246.055 L 653.594 246.055 Q 650.436 225.932 622.551 231.031 L 622.551 231.031 L 622.551 231.031 Q 609.905 233.343 591.134 245.506 L 591.134 245.506 L 591.134 245.506 Q 574.262 256.188 560.399 269.578 L 560.508 269.619 Z " fill-rule="evenodd" fill="rgb(0,97,97)"/><g transform="matrix(1,0,0,1,508.209,347.384)"><text transform="matrix(1,0,0,1,2.136,27.05)" style="font-family:'Playfair Display SC';font-weight:400;font-size:25px;font-style:normal;fill:#282a36;stroke:none;">XARRI Jorge</text></g><g transform="matrix(1,0,0,1,508.209,381.802)"><text transform="matrix(1,0,0,1,1.482,13.118)" style="font-family:'Play';font-weight:400;font-size:14px;font-style:normal;fill:#6f3e4b;stroke:none;">FRONTEND DEVELOPER</text></g></svg>